<svg width="605" height="422" xmlns="http://www.w3.org/2000/svg" xmlns:xlink="http://www.w3.org/1999/xlink" xml:space="preserve" overflow="hidden"><defs><clipPath id="clip0"><rect x="0" y="0" width="605" height="422"/></clipPath></defs><g clip-path="url(#clip0)"><path d="M-60.4956-42.2 665.451-42.2 665.451 464.2-60.4956 464.2Z" fill="#FFFFFF" transform="scale(1.00007 1)"/><path d="M-60.4956-42.2 665.451-42.2 665.451 464.2-60.4956 464.2Z" fill="#FFFFFF" transform="scale(1.00007 1)"/><path d="M0 422 604.956 422 604.956 0 0 0Z" stroke="#FFFFFF" stroke-width="1.42489" stroke-linecap="round" stroke-linejoin="round" stroke-miterlimit="10" fill="none" transform="scale(1.00007 1)"/><path d="M94.4356 342.119 443.414 342.119 443.414 30.2822 94.4356 30.2822Z" fill="#EBEBEB" transform="scale(1.00007 1)"/><path d="M110.795 342.119 159.872 342.119 159.872 143.675 110.795 143.675Z" fill="#4D648D" transform="scale(1.00007 1)"/><path d="M159.867 342.119 208.945 342.119 208.945 238.173 159.867 238.173Z" fill="#88CBEC" transform="scale(1.00007 1)"/><path d="M219.847 342.119 268.925 342.119 268.925 167.186 219.847 167.186Z" fill="#4D648D" transform="scale(1.00007 1)"/><path d="M268.925 342.119 318.002 342.119 318.002 326.526 268.925 326.526Z" fill="#88CBEC" fill-opacity="0.6" transform="scale(1.00007 1)"/><path d="M328.905 342.119 427.055 342.119 427.055 186.2 328.905 186.2Z" fill="#37474F" transform="scale(1.00007 1)"/><path d="M138.651 105.124C138.651 109.553 132.005 109.553 132.005 105.124 132.005 100.696 138.651 100.696 138.651 105.124" stroke="#FB1E20" stroke-width="0.946376" stroke-linecap="round" stroke-linejoin="round" stroke-miterlimit="10" fill="#FB1E20" transform="scale(1.00007 1)"/><path d="M184.406 96.8405 188.882 104.592 179.93 104.592Z" stroke="#008000" stroke-width="0.946376" stroke-linecap="round" stroke-linejoin="round" stroke-miterlimit="10" fill="#008000" transform="scale(1.00007 1)"/><path d="M247.709 105.124C247.709 109.553 241.063 109.553 241.063 105.124 241.063 100.696 247.709 100.696 247.709 105.124" stroke="#FB1E20" stroke-width="0.946376" stroke-linecap="round" stroke-linejoin="round" stroke-miterlimit="10" fill="#FB1E20" transform="scale(1.00007 1)"/><path d="M293.458 96.8405 297.934 104.592 288.988 104.592Z" stroke="#008000" stroke-width="0.946376" stroke-linecap="round" stroke-linejoin="round" stroke-miterlimit="10" stroke-opacity="0.6" fill="#008000" fill-opacity="0.6" transform="scale(1.00007 1)"/><path d="M7.56403-8.21611 6.23381-8.11177C6.11382-8.63343 5.94689-9.01946 5.7278-9.2542 5.36785-9.63501 4.92445-9.82803 4.39235-9.82803 3.96981-9.82803 3.59422-9.70804 3.27079-9.46808 2.85347-9.1603 2.51961-8.7169 2.27964-8.12742 2.03446-7.53795 1.90927-6.69808 1.89883-5.61303 2.22226-6.09817 2.6135-6.46334 3.07778-6.7033 3.54727-6.93804 4.03241-7.05802 4.54364-7.05802 5.43045-7.05802 6.19207-6.72938 6.81806-6.07209 7.44405-5.42002 7.75705-4.56972 7.75705-3.53162 7.75705-2.84825 7.60576-2.21704 7.31364-1.62757 7.02151-1.04331 6.61462-0.594689 6.09817-0.281696 5.58695 0.0312994 5.0027 0.187797 4.35062 0.187797 3.23428 0.187797 2.32659-0.224313 1.62757-1.04331 0.923333-1.86232 0.573824-3.21341 0.573824-5.09138 0.573824-7.19366 0.95985-8.72211 1.73712-9.67675 2.41527-10.5062 3.32818-10.9235 4.47582-10.9235 5.33134-10.9235 6.03036-10.6835 6.5781-10.2036 7.12584-9.72369 7.45448-9.06119 7.56403-8.21611M2.1075-3.5264C2.1075-3.06735 2.20661-2.62394 2.39962-2.20661 2.59785-1.78407 2.86912-1.46064 3.21863-1.24155 3.57335-1.02245 3.93851-0.912901 4.32454-0.912901 4.89315-0.912901 5.37307-1.14243 5.77996-1.59627 6.18686-2.05011 6.3903-2.67089 6.3903-3.45337 6.3903-4.20456 6.18686-4.79403 5.7904-5.22701 5.38872-5.65998 4.88271-5.87908 4.27237-5.87908 3.67247-5.87908 3.16124-5.65998 2.7387-5.22701 2.31616-4.79403 2.1075-4.22542 2.1075-3.5264Z" transform="matrix(1.00007 0 0 1 120.126 137.572)"/><path d="M4.91401 0 4.91401-2.60307 0.193013-2.60307 0.193013-3.82897 5.15919-10.8818 6.24946-10.8818 6.24946-3.82897 7.72053-3.82897 7.72053-2.60307 6.24946-2.60307 6.24946 0 4.91401 0M4.91401-3.82897 4.91401-8.73254 1.50759-3.82897Z" transform="matrix(1.00007 0 0 1 128.579 137.572)"/><path d="M0.881601-8.26827C0.881601-9.04554 1.07983-9.70283 1.47107-10.2506 1.86232-10.7931 2.42571-11.0644 3.16646-11.0644 3.84983-11.0644 4.41844-10.8192 4.86706-10.334 5.31047-9.84889 5.53478-9.12901 5.53478-8.1848 5.53478-7.26669 5.31047-6.55723 4.85663-6.06166 4.40279-5.56087 3.84461-5.31569 3.18211-5.31569 2.52482-5.31569 1.97708-5.56087 1.53889-6.04601 1.1007-6.53637 0.881601-7.27712 0.881601-8.26827M3.20819-10.1462C2.87433-10.1462 2.59785-10.0002 2.37876-9.71326 2.15966-9.42635 2.05011-8.89948 2.05011-8.13264 2.05011-7.43362 2.15966-6.94326 2.38397-6.66156 2.60307-6.37465 2.87955-6.23381 3.20819-6.23381 3.54205-6.23381 3.81853-6.37987 4.04285-6.66678 4.26194-6.95369 4.37149-7.47535 4.37149-8.23697 4.37149-8.94121 4.26194-9.43157 4.03763-9.71848 3.81332-10.0002 3.53684-10.1462 3.20819-10.1462M3.21341 0.401676 9.16552-11.0644 10.2506-11.0644 4.31932 0.401676 3.21341 0.401676M7.91876-2.5509C7.91876-3.33339 8.11177-3.9959 8.50302-4.53842 8.89426-5.08094 9.46287-5.3522 10.2141-5.3522 10.8922-5.3522 11.4608-5.10703 11.9094-4.62189 12.3528-4.13153 12.5772-3.41686 12.5772-2.47266 12.5772-1.54932 12.3528-0.839868 11.899-0.344293 11.4452 0.15128 10.887 0.401676 10.2193 0.401676 9.56198 0.401676 9.01424 0.156498 8.57605-0.339077 8.13786-0.829436 7.91876-1.57019 7.91876-2.5509M10.2506-4.42887C9.91149-4.42887 9.63501-4.28802 9.41592-4.00111 9.1916-3.7142 9.08206-3.18733 9.08206-2.42049 9.08206-1.72669 9.19682-1.23633 9.41592-0.949417 9.64023-0.662505 9.91671-0.521657 10.2401-0.521657 10.5844-0.521657 10.8661-0.662505 11.0852-0.949417 11.3043-1.23633 11.4139-1.7632 11.4139-2.52482 11.4139-3.22384 11.3043-3.71942 11.08-4.00633 10.8557-4.28802 10.5792-4.42887 10.2506-4.42887Z" transform="matrix(1.00007 0 0 1 137.033 137.572)"/><path d="M0.636421-2.87433 1.97186-3.0517C2.12836-2.29529 2.38919-1.74755 2.75957-1.41369 3.12473-1.07983 3.57335-0.912901 4.10544-0.912901 4.73143-0.912901 5.26352-1.132 5.6965-1.56497 6.12948-2.00316 6.34335-2.54047 6.34335-3.18211 6.34335-3.79767 6.14512-4.30367 5.74345-4.70013 5.34177-5.10181 4.83576-5.30004 4.21499-5.30004 3.9646-5.30004 3.64639-5.24787 3.27079-5.14876L3.42207-6.32249C3.51075-6.31205 3.58379-6.30684 3.63595-6.30684 4.20456-6.30684 4.71578-6.45812 5.17484-6.75546 5.62868-7.05281 5.853-7.50665 5.853-8.12742 5.853-8.61778 5.69128-9.01946 5.35742-9.34289 5.02878-9.66631 4.60102-9.82803 4.07414-9.82803 3.55249-9.82803 3.11951-9.6611 2.77522-9.33767 2.43092-9.00902 2.20661-8.51867 2.1075-7.86659L0.772053-8.10656C0.933767-8.99859 1.30414-9.69239 1.88318-10.188 2.46222-10.6783 3.18211-10.9235 4.04285-10.9235 4.63753-10.9235 5.18527-10.7983 5.68607-10.5427 6.18686-10.2871 6.56767-9.93757 6.83371-9.49938 7.09454-9.06119 7.23017-8.5917 7.23017-8.09612 7.23017-7.62663 7.09976-7.19887 6.84936-6.81285 6.59897-6.42682 6.22337-6.11904 5.7278-5.89473 6.37465-5.74345 6.87023-5.43567 7.23017-4.96618 7.5849-4.5019 7.76226-3.91765 7.76226-3.21341 7.76226-2.26399 7.41797-1.46064 6.72416-0.798136 6.03036-0.13563 5.15398 0.193013 4.09501 0.193013 3.14038 0.193013 2.34746-0.0938983 1.71625-0.662505 1.08505-1.23111 0.725104-1.96665 0.636421-2.87433Z" transform="matrix(1.00007 0 0 1 169.207 232.07)"/><path d="M0.636421-2.87433 1.97186-3.0517C2.12836-2.29529 2.38919-1.74755 2.75957-1.41369 3.12473-1.07983 3.57335-0.912901 4.10544-0.912901 4.73143-0.912901 5.26352-1.132 5.6965-1.56497 6.12948-2.00316 6.34335-2.54047 6.34335-3.18211 6.34335-3.79767 6.14512-4.30367 5.74345-4.70013 5.34177-5.10181 4.83576-5.30004 4.21499-5.30004 3.9646-5.30004 3.64639-5.24787 3.27079-5.14876L3.42207-6.32249C3.51075-6.31205 3.58379-6.30684 3.63595-6.30684 4.20456-6.30684 4.71578-6.45812 5.17484-6.75546 5.62868-7.05281 5.853-7.50665 5.853-8.12742 5.853-8.61778 5.69128-9.01946 5.35742-9.34289 5.02878-9.66631 4.60102-9.82803 4.07414-9.82803 3.55249-9.82803 3.11951-9.6611 2.77522-9.33767 2.43092-9.00902 2.20661-8.51867 2.1075-7.86659L0.772053-8.10656C0.933767-8.99859 1.30414-9.69239 1.88318-10.188 2.46222-10.6783 3.18211-10.9235 4.04285-10.9235 4.63753-10.9235 5.18527-10.7983 5.68607-10.5427 6.18686-10.2871 6.56767-9.93757 6.83371-9.49938 7.09454-9.06119 7.23017-8.5917 7.23017-8.09612 7.23017-7.62663 7.09976-7.19887 6.84936-6.81285 6.59897-6.42682 6.22337-6.11904 5.7278-5.89473 6.37465-5.74345 6.87023-5.43567 7.23017-4.96618 7.5849-4.5019 7.76226-3.91765 7.76226-3.21341 7.76226-2.26399 7.41797-1.46064 6.72416-0.798136 6.03036-0.13563 5.15398 0.193013 4.09501 0.193013 3.14038 0.193013 2.34746-0.0938983 1.71625-0.662505 1.08505-1.23111 0.725104-1.96665 0.636421-2.87433Z" transform="matrix(1.00007 0 0 1 177.66 232.07)"/><path d="M0.881601-8.26827C0.881601-9.04554 1.07983-9.70283 1.47107-10.2506 1.86232-10.7931 2.42571-11.0644 3.16646-11.0644 3.84983-11.0644 4.41844-10.8192 4.86706-10.334 5.31047-9.84889 5.53478-9.12901 5.53478-8.1848 5.53478-7.26669 5.31047-6.55723 4.85663-6.06166 4.40279-5.56087 3.84461-5.31569 3.18211-5.31569 2.52482-5.31569 1.97708-5.56087 1.53889-6.04601 1.1007-6.53637 0.881601-7.27712 0.881601-8.26827M3.20819-10.1462C2.87433-10.1462 2.59785-10.0002 2.37876-9.71326 2.15966-9.42635 2.05011-8.89948 2.05011-8.13264 2.05011-7.43362 2.15966-6.94326 2.38397-6.66156 2.60307-6.37465 2.87955-6.23381 3.20819-6.23381 3.54205-6.23381 3.81853-6.37987 4.04285-6.66678 4.26194-6.95369 4.37149-7.47535 4.37149-8.23697 4.37149-8.94121 4.26194-9.43157 4.03763-9.71848 3.81332-10.0002 3.53684-10.1462 3.20819-10.1462M3.21341 0.401676 9.16552-11.0644 10.2506-11.0644 4.31932 0.401676 3.21341 0.401676M7.91876-2.5509C7.91876-3.33339 8.11177-3.9959 8.50302-4.53842 8.89426-5.08094 9.46287-5.3522 10.2141-5.3522 10.8922-5.3522 11.4608-5.10703 11.9094-4.62189 12.3528-4.13153 12.5772-3.41686 12.5772-2.47266 12.5772-1.54932 12.3528-0.839868 11.899-0.344293 11.4452 0.15128 10.887 0.401676 10.2193 0.401676 9.56198 0.401676 9.01424 0.156498 8.57605-0.339077 8.13786-0.829436 7.91876-1.57019 7.91876-2.5509M10.2506-4.42887C9.91149-4.42887 9.63501-4.28802 9.41592-4.00111 9.1916-3.7142 9.08206-3.18733 9.08206-2.42049 9.08206-1.72669 9.19682-1.23633 9.41592-0.949417 9.64023-0.662505 9.91671-0.521657 10.2401-0.521657 10.5844-0.521657 10.8661-0.662505 11.0852-0.949417 11.3043-1.23633 11.4139-1.7632 11.4139-2.52482 11.4139-3.22384 11.3043-3.71942 11.08-4.00633 10.8557-4.28802 10.5792-4.42887 10.2506-4.42887Z" transform="matrix(1.00007 0 0 1 186.114 232.07)"/><path d="M0.631205-2.84825 2.03446-2.96823C2.13879-2.28486 2.37876-1.77364 2.75957-1.42934 3.13516-1.08505 3.59422-0.912901 4.12631-0.912901 4.76795-0.912901 5.31569-1.15286 5.7591-1.638 6.20251-2.12315 6.42682-2.77 6.42682-3.56814 6.42682-4.32976 6.21294-4.93488 5.78518-5.37307 5.35742-5.81126 4.79403-6.03558 4.10544-6.03558 3.67247-6.03558 3.28644-5.93646 2.93693-5.73823 2.59264-5.54522 2.32138-5.28961 2.12315-4.98183L0.865952-5.14354 1.9197-10.7305 7.3345-10.7305 7.3345-9.45243 2.9891-9.45243 2.40484-6.53115C3.05691-6.98499 3.74028-7.21452 4.46017-7.21452 5.40959-7.21452 6.21294-6.88588 6.86501-6.22859 7.51708-5.56609 7.84573-4.721 7.84573-3.68812 7.84573-2.70219 7.55882-1.85188 6.98499-1.13721 6.28597-0.255612 5.33134 0.187797 4.12631 0.187797 3.13516 0.187797 2.32659-0.0938983 1.7006-0.646855 1.07983-1.19981 0.719887-1.93535 0.631205-2.84825Z" transform="matrix(1.00007 0 0 1 229.191 161.083)"/><path d="M7.56403-8.21611 6.23381-8.11177C6.11382-8.63343 5.94689-9.01946 5.7278-9.2542 5.36785-9.63501 4.92445-9.82803 4.39235-9.82803 3.96981-9.82803 3.59422-9.70804 3.27079-9.46808 2.85347-9.1603 2.51961-8.7169 2.27964-8.12742 2.03446-7.53795 1.90927-6.69808 1.89883-5.61303 2.22226-6.09817 2.6135-6.46334 3.07778-6.7033 3.54727-6.93804 4.03241-7.05802 4.54364-7.05802 5.43045-7.05802 6.19207-6.72938 6.81806-6.07209 7.44405-5.42002 7.75705-4.56972 7.75705-3.53162 7.75705-2.84825 7.60576-2.21704 7.31364-1.62757 7.02151-1.04331 6.61462-0.594689 6.09817-0.281696 5.58695 0.0312994 5.0027 0.187797 4.35062 0.187797 3.23428 0.187797 2.32659-0.224313 1.62757-1.04331 0.923333-1.86232 0.573824-3.21341 0.573824-5.09138 0.573824-7.19366 0.95985-8.72211 1.73712-9.67675 2.41527-10.5062 3.32818-10.9235 4.47582-10.9235 5.33134-10.9235 6.03036-10.6835 6.5781-10.2036 7.12584-9.72369 7.45448-9.06119 7.56403-8.21611M2.1075-3.5264C2.1075-3.06735 2.20661-2.62394 2.39962-2.20661 2.59785-1.78407 2.86912-1.46064 3.21863-1.24155 3.57335-1.02245 3.93851-0.912901 4.32454-0.912901 4.89315-0.912901 5.37307-1.14243 5.77996-1.59627 6.18686-2.05011 6.3903-2.67089 6.3903-3.45337 6.3903-4.20456 6.18686-4.79403 5.7904-5.22701 5.38872-5.65998 4.88271-5.87908 4.27237-5.87908 3.67247-5.87908 3.16124-5.65998 2.7387-5.22701 2.31616-4.79403 2.1075-4.22542 2.1075-3.5264Z" transform="matrix(1.00007 0 0 1 237.645 161.083)"/><path d="M0.881601-8.26827C0.881601-9.04554 1.07983-9.70283 1.47107-10.2506 1.86232-10.7931 2.42571-11.0644 3.16646-11.0644 3.84983-11.0644 4.41844-10.8192 4.86706-10.334 5.31047-9.84889 5.53478-9.12901 5.53478-8.1848 5.53478-7.26669 5.31047-6.55723 4.85663-6.06166 4.40279-5.56087 3.84461-5.31569 3.18211-5.31569 2.52482-5.31569 1.97708-5.56087 1.53889-6.04601 1.1007-6.53637 0.881601-7.27712 0.881601-8.26827M3.20819-10.1462C2.87433-10.1462 2.59785-10.0002 2.37876-9.71326 2.15966-9.42635 2.05011-8.89948 2.05011-8.13264 2.05011-7.43362 2.15966-6.94326 2.38397-6.66156 2.60307-6.37465 2.87955-6.23381 3.20819-6.23381 3.54205-6.23381 3.81853-6.37987 4.04285-6.66678 4.26194-6.95369 4.37149-7.47535 4.37149-8.23697 4.37149-8.94121 4.26194-9.43157 4.03763-9.71848 3.81332-10.0002 3.53684-10.1462 3.20819-10.1462M3.21341 0.401676 9.16552-11.0644 10.2506-11.0644 4.31932 0.401676 3.21341 0.401676M7.91876-2.5509C7.91876-3.33339 8.11177-3.9959 8.50302-4.53842 8.89426-5.08094 9.46287-5.3522 10.2141-5.3522 10.8922-5.3522 11.4608-5.10703 11.9094-4.62189 12.3528-4.13153 12.5772-3.41686 12.5772-2.47266 12.5772-1.54932 12.3528-0.839868 11.899-0.344293 11.4452 0.15128 10.887 0.401676 10.2193 0.401676 9.56198 0.401676 9.01424 0.156498 8.57605-0.339077 8.13786-0.829436 7.91876-1.57019 7.91876-2.5509M10.2506-4.42887C9.91149-4.42887 9.63501-4.28802 9.41592-4.00111 9.1916-3.7142 9.08206-3.18733 9.08206-2.42049 9.08206-1.72669 9.19682-1.23633 9.41592-0.949417 9.64023-0.662505 9.91671-0.521657 10.2401-0.521657 10.5844-0.521657 10.8661-0.662505 11.0852-0.949417 11.3043-1.23633 11.4139-1.7632 11.4139-2.52482 11.4139-3.22384 11.3043-3.71942 11.08-4.00633 10.8557-4.28802 10.5792-4.42887 10.2506-4.42887Z" transform="matrix(1.00007 0 0 1 246.098 161.083)"/><path d="M0.474709-8.88383 0.813786-9.93757C1.60149-9.6611 2.17531-9.42113 2.53004-9.21769 2.43614-10.1149 2.38919-10.7305 2.38397-11.0644L3.45859-11.0644C3.44294-10.574 3.38556-9.96366 3.28644-9.2229 3.79767-9.48373 4.38192-9.71848 5.03921-9.93757L5.37829-8.88383C4.7523-8.67516 4.13674-8.53953 3.53162-8.4665 3.83418-8.20567 4.26194-7.73618 4.80968-7.06324L3.91765-6.43204C3.63074-6.82328 3.29166-7.35537 2.90042-8.02831 2.53526-7.3345 2.21183-6.80241 1.93535-6.43204L1.05896-7.06324C1.63279-7.7727 2.0449-8.24219 2.29529-8.4665 1.65365-8.5917 1.04853-8.72733 0.474709-8.88383Z" fill="#000000" fill-opacity="0.6" transform="matrix(1.00007 0 0 1 290.522 320.423)"/><path d="M0.631205-2.84825 2.03446-2.96823C2.13879-2.28486 2.37876-1.77364 2.75957-1.42934 3.13516-1.08505 3.59422-0.912901 4.12631-0.912901 4.76795-0.912901 5.31569-1.15286 5.7591-1.638 6.20251-2.12315 6.42682-2.77 6.42682-3.56814 6.42682-4.32976 6.21294-4.93488 5.78518-5.37307 5.35742-5.81126 4.79403-6.03558 4.10544-6.03558 3.67247-6.03558 3.28644-5.93646 2.93693-5.73823 2.59264-5.54522 2.32138-5.28961 2.12315-4.98183L0.865952-5.14354 1.9197-10.7305 7.3345-10.7305 7.3345-9.45243 2.9891-9.45243 2.40484-6.53115C3.05691-6.98499 3.74028-7.21452 4.46017-7.21452 5.40959-7.21452 6.21294-6.88588 6.86501-6.22859 7.51708-5.56609 7.84573-4.721 7.84573-3.68812 7.84573-2.70219 7.55882-1.85188 6.98499-1.13721 6.28597-0.255612 5.33134 0.187797 4.12631 0.187797 3.13516 0.187797 2.32659-0.0938983 1.7006-0.646855 1.07983-1.19981 0.719887-1.93535 0.631205-2.84825Z" transform="matrix(1.00007 0 0 1 362.792 180.097)"/><path d="M0.631205-5.36785C0.631205-6.65113 0.761619-7.68923 1.02766-8.47172 1.29371-9.2542 1.68495-9.85932 2.20661-10.2871 2.72827-10.7096 3.38556-10.9235 4.17848-10.9235 4.76273-10.9235 5.27396-10.8087 5.71215-10.574 6.15556-10.334 6.52072-10.0002 6.80763-9.55676 7.09454-9.11336 7.31885-8.57083 7.48057-7.93963 7.64228-7.3032 7.72575-6.44247 7.72575-5.36785 7.72575-4.08979 7.59533-3.05691 7.3345-2.27443 7.06846-1.49194 6.67722-0.886817 6.15556-0.453842 5.6339-0.0260828 4.97661 0.187797 4.17848 0.187797 3.12994 0.187797 2.30573-0.193013 1.70582-0.9442 0.99115-1.84667 0.631205-3.32296 0.631205-5.36785M2.00316-5.36785C2.00316-3.57857 2.21183-2.38919 2.62915-1.79972 3.04648-1.21025 3.56292-0.912901 4.17848-0.912901 4.79403-0.912901 5.30526-1.21025 5.7278-1.80493 6.14512-2.39962 6.35379-3.58379 6.35379-5.36785 6.35379-7.15714 6.14512-8.34652 5.7278-8.93599 5.30526-9.52546 4.78882-9.81759 4.16283-9.81759 3.54727-9.81759 3.06213-9.55676 2.69175-9.04032 2.23269-8.37782 2.00316-7.15192 2.00316-5.36785Z" transform="matrix(1.00007 0 0 1 371.246 180.097)"/><path d="M0.881601-8.26827C0.881601-9.04554 1.07983-9.70283 1.47107-10.2506 1.86232-10.7931 2.42571-11.0644 3.16646-11.0644 3.84983-11.0644 4.41844-10.8192 4.86706-10.334 5.31047-9.84889 5.53478-9.12901 5.53478-8.1848 5.53478-7.26669 5.31047-6.55723 4.85663-6.06166 4.40279-5.56087 3.84461-5.31569 3.18211-5.31569 2.52482-5.31569 1.97708-5.56087 1.53889-6.04601 1.1007-6.53637 0.881601-7.27712 0.881601-8.26827M3.20819-10.1462C2.87433-10.1462 2.59785-10.0002 2.37876-9.71326 2.15966-9.42635 2.05011-8.89948 2.05011-8.13264 2.05011-7.43362 2.15966-6.94326 2.38397-6.66156 2.60307-6.37465 2.87955-6.23381 3.20819-6.23381 3.54205-6.23381 3.81853-6.37987 4.04285-6.66678 4.26194-6.95369 4.37149-7.47535 4.37149-8.23697 4.37149-8.94121 4.26194-9.43157 4.03763-9.71848 3.81332-10.0002 3.53684-10.1462 3.20819-10.1462M3.21341 0.401676 9.16552-11.0644 10.2506-11.0644 4.31932 0.401676 3.21341 0.401676M7.91876-2.5509C7.91876-3.33339 8.11177-3.9959 8.50302-4.53842 8.89426-5.08094 9.46287-5.3522 10.2141-5.3522 10.8922-5.3522 11.4608-5.10703 11.9094-4.62189 12.3528-4.13153 12.5772-3.41686 12.5772-2.47266 12.5772-1.54932 12.3528-0.839868 11.899-0.344293 11.4452 0.15128 10.887 0.401676 10.2193 0.401676 9.56198 0.401676 9.01424 0.156498 8.57605-0.339077 8.13786-0.829436 7.91876-1.57019 7.91876-2.5509M10.2506-4.42887C9.91149-4.42887 9.63501-4.28802 9.41592-4.00111 9.1916-3.7142 9.08206-3.18733 9.08206-2.42049 9.08206-1.72669 9.19682-1.23633 9.41592-0.949417 9.64023-0.662505 9.91671-0.521657 10.2401-0.521657 10.5844-0.521657 10.8661-0.662505 11.0852-0.949417 11.3043-1.23633 11.4139-1.7632 11.4139-2.52482 11.4139-3.22384 11.3043-3.71942 11.08-4.00633 10.8557-4.28802 10.5792-4.42887 10.2506-4.42887Z" transform="matrix(1.00007 0 0 1 379.699 180.097)"/><path d="M0.490359-4.14718C0.490359-5.14354 0.589473-5.94168 0.792919-6.55202 1.00158-7.15714 1.30414-7.62663 1.70582-7.95528 2.11271-8.28392 2.61872-8.44563 3.22906-8.44563 3.6829-8.44563 4.07936-8.35695 4.41844-8.17437 4.75752-7.99179 5.03921-7.73096 5.26352-7.38667 5.48262-7.04759 5.65998-6.63027 5.78518-6.13469 5.91038-5.64433 5.97298-4.98183 5.97298-4.14718 5.97298-3.16124 5.87386-2.36311 5.67042-1.75799 5.46697-1.15286 5.16441-0.683372 4.75752-0.354727 4.35584-0.0208663 3.84461 0.146064 3.22906 0.146064 2.42049 0.146064 1.78407-0.146064 1.31979-0.73032 0.766837-1.42934 0.490359-2.56655 0.490359-4.14718M1.54932-4.14718C1.54932-2.77 1.71104-1.84667 2.03446-1.39283 2.35789-0.933767 2.75435-0.704238 3.22906-0.704238 3.70377-0.704238 4.10544-0.933767 4.42887-1.39283 4.7523-1.85188 4.91401-2.77 4.91401-4.14718 4.91401-5.53478 4.7523-6.4529 4.42887-6.90674 4.10544-7.3658 3.70377-7.59012 3.21863-7.59012 2.74392-7.59012 2.36833-7.39189 2.08141-6.99021 1.72669-6.47898 1.54932-5.52957 1.54932-4.14718Z" fill="#4D4D4D" transform="matrix(1.00007 0 0 1 70.8671 346.996)"/><path d="M0.683372-6.3903C0.683372-6.99543 0.834652-7.50143 1.13721-7.92398 1.43977-8.34652 1.87797-8.55518 2.45179-8.55518 2.97866-8.55518 3.41686-8.36738 3.76115-7.99179 4.10544-7.6162 4.28281-7.05802 4.28281-6.3277 4.28281-5.61825 4.10544-5.07051 3.75593-4.68448 3.40642-4.29846 2.97345-4.11066 2.46222-4.11066 1.951-4.11066 1.52846-4.29846 1.18938-4.67927 0.850302-5.05486 0.683372-5.62868 0.683372-6.3903M2.47787-7.84573C2.22226-7.84573 2.00838-7.73096 1.84145-7.51187 1.6693-7.28755 1.58584-6.88066 1.58584-6.29119 1.58584-5.74867 1.6693-5.36785 1.84145-5.14876 2.0136-4.92966 2.22748-4.82011 2.47787-4.82011 2.7387-4.82011 2.95258-4.92966 3.12473-5.15398 3.29688-5.37307 3.38034-5.77996 3.38034-6.36944 3.38034-6.91196 3.29166-7.29277 3.11951-7.51187 2.94736-7.73618 2.73348-7.84573 2.47787-7.84573M2.48309 0.307778 7.08411-8.55518 7.92398-8.55518 3.33861 0.307778 2.48309 0.307778M6.12426-1.97186C6.12426-2.57699 6.27554-3.08821 6.5781-3.51075 6.88066-3.92808 7.31885-4.13674 7.89789-4.13674 8.42477-4.13674 8.86296-3.94895 9.20725-3.57335 9.55155-3.19776 9.72369-2.63959 9.72891-1.90927 9.72369-1.19981 9.55155-0.652071 9.20204-0.266046 8.85253 0.119981 8.41955 0.307778 7.90311 0.307778 7.39189 0.307778 6.96934 0.119981 6.63027-0.260828 6.29119-0.641639 6.12426-1.21025 6.12426-1.97186M7.92398-3.42729C7.66315-3.42729 7.44927-3.31253 7.27712-3.09343 7.11019-2.86912 7.02151-2.46222 7.02151-1.87275 7.02151-1.33544 7.11019-0.954633 7.28234-0.735537 7.45448-0.511224 7.66837-0.401676 7.91876-0.401676 8.1848-0.401676 8.39868-0.511224 8.57083-0.735537 8.73776-0.954633 8.82644-1.36153 8.82644-1.951 8.82644-2.49352 8.73776-2.87433 8.56561-3.09343 8.39347-3.31774 8.17959-3.42729 7.92398-3.42729Z" fill="#4D4D4D" transform="matrix(1.00007 0 0 1 77.4035 346.996)"/><path d="M5.9156-0.99115 5.9156 0 0.354727 0C0.349511-0.250396 0.386026-0.490359 0.474709-0.719887 0.615556-1.09548 0.845084-1.47107 1.15808-1.83623 1.46586-2.2014 1.9197-2.62915 2.50917-3.10908 3.42207-3.86027 4.03763-4.45496 4.36106-4.89315 4.68448-5.33134 4.84098-5.74345 4.84098-6.13469 4.84098-6.54158 4.69492-6.89109 4.40279-7.16757 4.11066-7.44927 3.72985-7.59012 3.26036-7.59012 2.75957-7.59012 2.36311-7.44405 2.06576-7.14671 1.76842-6.84415 1.61714-6.43204 1.61192-5.90516L0.552956-6.01471C0.625989-6.80763 0.897251-7.40754 1.37196-7.82486 1.84667-8.23697 2.48309-8.44563 3.28122-8.44563 4.08979-8.44563 4.72622-8.22132 5.20092-7.77791 5.67042-7.32929 5.90516-6.77111 5.90516-6.11382 5.90516-5.77475 5.83735-5.4461 5.6965-5.11746 5.56087-4.79403 5.33134-4.44974 5.01313-4.08979 4.69492-3.72985 4.16283-3.23949 3.42207-2.6135 2.8013-2.09185 2.40484-1.73712 2.22748-1.55454 2.05011-1.36674 1.90405-1.17895 1.78929-0.99115Z" fill="#4D4D4D" transform="matrix(1.00007 0 0 1 64.3303 269.034)"/><path d="M0.490359-2.2014 1.57019-2.29529C1.65365-1.76842 1.84145-1.37196 2.13358-1.10591 2.42571-0.839868 2.77522-0.704238 3.19254-0.704238 3.68812-0.704238 4.11066-0.892035 4.45496-1.26763 4.79925-1.64322 4.9714-2.13879 4.9714-2.75957 4.9714-3.34904 4.80446-3.81332 4.4706-4.15239 4.14196-4.49669 3.70898-4.66362 3.17168-4.66362 2.83782-4.66362 2.54047-4.59059 2.27443-4.4393 2.00316-4.28802 1.7945-4.08979 1.64322-3.84983L0.672938-3.97503 1.48672-8.29957 5.67042-8.29957 5.67042-7.30842 2.31094-7.30842 1.8571-5.04964C2.36311-5.39916 2.8952-5.57652 3.44816-5.57652 4.18369-5.57652 4.80446-5.32091 5.31047-4.8149 5.81126-4.30367 6.06688-3.6516 6.06688-2.85347 6.06688-2.09185 5.84256-1.43456 5.39916-0.876384 4.86185-0.198231 4.12631 0.146064 3.19254 0.146064 2.42571 0.146064 1.79972-0.073032 1.31458-0.500791 0.834652-0.92855 0.558174-1.49716 0.490359-2.2014Z" fill="#4D4D4D" transform="matrix(1.00007 0 0 1 70.8666 269.034)"/><path d="M0.683372-6.3903C0.683372-6.99543 0.834652-7.50143 1.13721-7.92398 1.43977-8.34652 1.87797-8.55518 2.45179-8.55518 2.97866-8.55518 3.41686-8.36738 3.76115-7.99179 4.10544-7.6162 4.28281-7.05802 4.28281-6.3277 4.28281-5.61825 4.10544-5.07051 3.75593-4.68448 3.40642-4.29846 2.97345-4.11066 2.46222-4.11066 1.951-4.11066 1.52846-4.29846 1.18938-4.67927 0.850302-5.05486 0.683372-5.62868 0.683372-6.3903M2.47787-7.84573C2.22226-7.84573 2.00838-7.73096 1.84145-7.51187 1.6693-7.28755 1.58584-6.88066 1.58584-6.29119 1.58584-5.74867 1.6693-5.36785 1.84145-5.14876 2.0136-4.92966 2.22748-4.82011 2.47787-4.82011 2.7387-4.82011 2.95258-4.92966 3.12473-5.15398 3.29688-5.37307 3.38034-5.77996 3.38034-6.36944 3.38034-6.91196 3.29166-7.29277 3.11951-7.51187 2.94736-7.73618 2.73348-7.84573 2.47787-7.84573M2.48309 0.307778 7.08411-8.55518 7.92398-8.55518 3.33861 0.307778 2.48309 0.307778M6.12426-1.97186C6.12426-2.57699 6.27554-3.08821 6.5781-3.51075 6.88066-3.92808 7.31885-4.13674 7.89789-4.13674 8.42477-4.13674 8.86296-3.94895 9.20725-3.57335 9.55155-3.19776 9.72369-2.63959 9.72891-1.90927 9.72369-1.19981 9.55155-0.652071 9.20204-0.266046 8.85253 0.119981 8.41955 0.307778 7.90311 0.307778 7.39189 0.307778 6.96934 0.119981 6.63027-0.260828 6.29119-0.641639 6.12426-1.21025 6.12426-1.97186M7.92398-3.42729C7.66315-3.42729 7.44927-3.31253 7.27712-3.09343 7.11019-2.86912 7.02151-2.46222 7.02151-1.87275 7.02151-1.33544 7.11019-0.954633 7.28234-0.735537 7.45448-0.511224 7.66837-0.401676 7.91876-0.401676 8.1848-0.401676 8.39868-0.511224 8.57083-0.735537 8.73776-0.954633 8.82644-1.36153 8.82644-1.951 8.82644-2.49352 8.73776-2.87433 8.56561-3.09343 8.39347-3.31774 8.17959-3.42729 7.92398-3.42729Z" fill="#4D4D4D" transform="matrix(1.00007 0 0 1 77.4029 269.034)"/><path d="M0.490359-2.2014 1.57019-2.29529C1.65365-1.76842 1.84145-1.37196 2.13358-1.10591 2.42571-0.839868 2.77522-0.704238 3.19254-0.704238 3.68812-0.704238 4.11066-0.892035 4.45496-1.26763 4.79925-1.64322 4.9714-2.13879 4.9714-2.75957 4.9714-3.34904 4.80446-3.81332 4.4706-4.15239 4.14196-4.49669 3.70898-4.66362 3.17168-4.66362 2.83782-4.66362 2.54047-4.59059 2.27443-4.4393 2.00316-4.28802 1.7945-4.08979 1.64322-3.84983L0.672938-3.97503 1.48672-8.29957 5.67042-8.29957 5.67042-7.30842 2.31094-7.30842 1.8571-5.04964C2.36311-5.39916 2.8952-5.57652 3.44816-5.57652 4.18369-5.57652 4.80446-5.32091 5.31047-4.8149 5.81126-4.30367 6.06688-3.6516 6.06688-2.85347 6.06688-2.09185 5.84256-1.43456 5.39916-0.876384 4.86185-0.198231 4.12631 0.146064 3.19254 0.146064 2.42571 0.146064 1.79972-0.073032 1.31458-0.500791 0.834652-0.92855 0.558174-1.49716 0.490359-2.2014Z" fill="#4D4D4D" transform="matrix(1.00007 0 0 1 64.3303 191.078)"/><path d="M0.490359-4.14718C0.490359-5.14354 0.589473-5.94168 0.792919-6.55202 1.00158-7.15714 1.30414-7.62663 1.70582-7.95528 2.11271-8.28392 2.61872-8.44563 3.22906-8.44563 3.6829-8.44563 4.07936-8.35695 4.41844-8.17437 4.75752-7.99179 5.03921-7.73096 5.26352-7.38667 5.48262-7.04759 5.65998-6.63027 5.78518-6.13469 5.91038-5.64433 5.97298-4.98183 5.97298-4.14718 5.97298-3.16124 5.87386-2.36311 5.67042-1.75799 5.46697-1.15286 5.16441-0.683372 4.75752-0.354727 4.35584-0.0208663 3.84461 0.146064 3.22906 0.146064 2.42049 0.146064 1.78407-0.146064 1.31979-0.73032 0.766837-1.42934 0.490359-2.56655 0.490359-4.14718M1.54932-4.14718C1.54932-2.77 1.71104-1.84667 2.03446-1.39283 2.35789-0.933767 2.75435-0.704238 3.22906-0.704238 3.70377-0.704238 4.10544-0.933767 4.42887-1.39283 4.7523-1.85188 4.91401-2.77 4.91401-4.14718 4.91401-5.53478 4.7523-6.4529 4.42887-6.90674 4.10544-7.3658 3.70377-7.59012 3.21863-7.59012 2.74392-7.59012 2.36833-7.39189 2.08141-6.99021 1.72669-6.47898 1.54932-5.52957 1.54932-4.14718Z" fill="#4D4D4D" transform="matrix(1.00007 0 0 1 70.8666 191.078)"/><path d="M0.683372-6.3903C0.683372-6.99543 0.834652-7.50143 1.13721-7.92398 1.43977-8.34652 1.87797-8.55518 2.45179-8.55518 2.97866-8.55518 3.41686-8.36738 3.76115-7.99179 4.10544-7.6162 4.28281-7.05802 4.28281-6.3277 4.28281-5.61825 4.10544-5.07051 3.75593-4.68448 3.40642-4.29846 2.97345-4.11066 2.46222-4.11066 1.951-4.11066 1.52846-4.29846 1.18938-4.67927 0.850302-5.05486 0.683372-5.62868 0.683372-6.3903M2.47787-7.84573C2.22226-7.84573 2.00838-7.73096 1.84145-7.51187 1.6693-7.28755 1.58584-6.88066 1.58584-6.29119 1.58584-5.74867 1.6693-5.36785 1.84145-5.14876 2.0136-4.92966 2.22748-4.82011 2.47787-4.82011 2.7387-4.82011 2.95258-4.92966 3.12473-5.15398 3.29688-5.37307 3.38034-5.77996 3.38034-6.36944 3.38034-6.91196 3.29166-7.29277 3.11951-7.51187 2.94736-7.73618 2.73348-7.84573 2.47787-7.84573M2.48309 0.307778 7.08411-8.55518 7.92398-8.55518 3.33861 0.307778 2.48309 0.307778M6.12426-1.97186C6.12426-2.57699 6.27554-3.08821 6.5781-3.51075 6.88066-3.92808 7.31885-4.13674 7.89789-4.13674 8.42477-4.13674 8.86296-3.94895 9.20725-3.57335 9.55155-3.19776 9.72369-2.63959 9.72891-1.90927 9.72369-1.19981 9.55155-0.652071 9.20204-0.266046 8.85253 0.119981 8.41955 0.307778 7.90311 0.307778 7.39189 0.307778 6.96934 0.119981 6.63027-0.260828 6.29119-0.641639 6.12426-1.21025 6.12426-1.97186M7.92398-3.42729C7.66315-3.42729 7.44927-3.31253 7.27712-3.09343 7.11019-2.86912 7.02151-2.46222 7.02151-1.87275 7.02151-1.33544 7.11019-0.954633 7.28234-0.735537 7.45448-0.511224 7.66837-0.401676 7.91876-0.401676 8.1848-0.401676 8.39868-0.511224 8.57083-0.735537 8.73776-0.954633 8.82644-1.36153 8.82644-1.951 8.82644-2.49352 8.73776-2.87433 8.56561-3.09343 8.39347-3.31774 8.17959-3.42729 7.92398-3.42729Z" fill="#4D4D4D" transform="matrix(1.00007 0 0 1 77.4029 191.078)"/><path d="M0.558174-7.30842 0.558174-8.30479 6.00428-8.30479 6.00428-7.50143C5.46697-6.92761 4.93488-6.17121 4.408-5.22701 3.88635-4.28281 3.47946-3.31253 3.19254-2.31094 2.98388-1.6067 2.85347-0.839868 2.79608 0L1.7319 0C1.74234-0.662505 1.87275-1.46064 2.12315-2.39962 2.37354-3.33339 2.72827-4.24107 3.19254-5.11224 3.65682-5.97819 4.15239-6.71373 4.67927-7.30842Z" fill="#4D4D4D" transform="matrix(1.00007 0 0 1 64.3303 113.116)"/><path d="M0.490359-2.2014 1.57019-2.29529C1.65365-1.76842 1.84145-1.37196 2.13358-1.10591 2.42571-0.839868 2.77522-0.704238 3.19254-0.704238 3.68812-0.704238 4.11066-0.892035 4.45496-1.26763 4.79925-1.64322 4.9714-2.13879 4.9714-2.75957 4.9714-3.34904 4.80446-3.81332 4.4706-4.15239 4.14196-4.49669 3.70898-4.66362 3.17168-4.66362 2.83782-4.66362 2.54047-4.59059 2.27443-4.4393 2.00316-4.28802 1.7945-4.08979 1.64322-3.84983L0.672938-3.97503 1.48672-8.29957 5.67042-8.29957 5.67042-7.30842 2.31094-7.30842 1.8571-5.04964C2.36311-5.39916 2.8952-5.57652 3.44816-5.57652 4.18369-5.57652 4.80446-5.32091 5.31047-4.8149 5.81126-4.30367 6.06688-3.6516 6.06688-2.85347 6.06688-2.09185 5.84256-1.43456 5.39916-0.876384 4.86185-0.198231 4.12631 0.146064 3.19254 0.146064 2.42571 0.146064 1.79972-0.073032 1.31458-0.500791 0.834652-0.92855 0.558174-1.49716 0.490359-2.2014Z" fill="#4D4D4D" transform="matrix(1.00007 0 0 1 70.8666 113.116)"/><path d="M0.683372-6.3903C0.683372-6.99543 0.834652-7.50143 1.13721-7.92398 1.43977-8.34652 1.87797-8.55518 2.45179-8.55518 2.97866-8.55518 3.41686-8.36738 3.76115-7.99179 4.10544-7.6162 4.28281-7.05802 4.28281-6.3277 4.28281-5.61825 4.10544-5.07051 3.75593-4.68448 3.40642-4.29846 2.97345-4.11066 2.46222-4.11066 1.951-4.11066 1.52846-4.29846 1.18938-4.67927 0.850302-5.05486 0.683372-5.62868 0.683372-6.3903M2.47787-7.84573C2.22226-7.84573 2.00838-7.73096 1.84145-7.51187 1.6693-7.28755 1.58584-6.88066 1.58584-6.29119 1.58584-5.74867 1.6693-5.36785 1.84145-5.14876 2.0136-4.92966 2.22748-4.82011 2.47787-4.82011 2.7387-4.82011 2.95258-4.92966 3.12473-5.15398 3.29688-5.37307 3.38034-5.77996 3.38034-6.36944 3.38034-6.91196 3.29166-7.29277 3.11951-7.51187 2.94736-7.73618 2.73348-7.84573 2.47787-7.84573M2.48309 0.307778 7.08411-8.55518 7.92398-8.55518 3.33861 0.307778 2.48309 0.307778M6.12426-1.97186C6.12426-2.57699 6.27554-3.08821 6.5781-3.51075 6.88066-3.92808 7.31885-4.13674 7.89789-4.13674 8.42477-4.13674 8.86296-3.94895 9.20725-3.57335 9.55155-3.19776 9.72369-2.63959 9.72891-1.90927 9.72369-1.19981 9.55155-0.652071 9.20204-0.266046 8.85253 0.119981 8.41955 0.307778 7.90311 0.307778 7.39189 0.307778 6.96934 0.119981 6.63027-0.260828 6.29119-0.641639 6.12426-1.21025 6.12426-1.97186M7.92398-3.42729C7.66315-3.42729 7.44927-3.31253 7.27712-3.09343 7.11019-2.86912 7.02151-2.46222 7.02151-1.87275 7.02151-1.33544 7.11019-0.954633 7.28234-0.735537 7.45448-0.511224 7.66837-0.401676 7.91876-0.401676 8.1848-0.401676 8.39868-0.511224 8.57083-0.735537 8.73776-0.954633 8.82644-1.36153 8.82644-1.951 8.82644-2.49352 8.73776-2.87433 8.56561-3.09343 8.39347-3.31774 8.17959-3.42729 7.92398-3.42729Z" fill="#4D4D4D" transform="matrix(1.00007 0 0 1 77.4029 113.116)"/><path d="M4.37671 0 3.34382 0 3.34382-6.58332C3.09864-6.34335 2.77-6.10861 2.36833-5.86865 1.96143-5.6339 1.60149-5.45654 1.27806-5.33656L1.27806-6.33292C1.8571-6.60418 2.36311-6.93804 2.79608-7.32407 3.22906-7.7101 3.53162-8.08569 3.7142-8.44563L4.37671-8.44563Z" fill="#4D4D4D" transform="matrix(1.00007 0 0 1 57.7934 35.1597)"/><path d="M0.490359-4.14718C0.490359-5.14354 0.589473-5.94168 0.792919-6.55202 1.00158-7.15714 1.30414-7.62663 1.70582-7.95528 2.11271-8.28392 2.61872-8.44563 3.22906-8.44563 3.6829-8.44563 4.07936-8.35695 4.41844-8.17437 4.75752-7.99179 5.03921-7.73096 5.26352-7.38667 5.48262-7.04759 5.65998-6.63027 5.78518-6.13469 5.91038-5.64433 5.97298-4.98183 5.97298-4.14718 5.97298-3.16124 5.87386-2.36311 5.67042-1.75799 5.46697-1.15286 5.16441-0.683372 4.75752-0.354727 4.35584-0.0208663 3.84461 0.146064 3.22906 0.146064 2.42049 0.146064 1.78407-0.146064 1.31979-0.73032 0.766837-1.42934 0.490359-2.56655 0.490359-4.14718M1.54932-4.14718C1.54932-2.77 1.71104-1.84667 2.03446-1.39283 2.35789-0.933767 2.75435-0.704238 3.22906-0.704238 3.70377-0.704238 4.10544-0.933767 4.42887-1.39283 4.7523-1.85188 4.91401-2.77 4.91401-4.14718 4.91401-5.53478 4.7523-6.4529 4.42887-6.90674 4.10544-7.3658 3.70377-7.59012 3.21863-7.59012 2.74392-7.59012 2.36833-7.39189 2.08141-6.99021 1.72669-6.47898 1.54932-5.52957 1.54932-4.14718Z" fill="#4D4D4D" transform="matrix(1.00007 0 0 1 64.3298 35.1597)"/><path d="M0.490359-4.14718C0.490359-5.14354 0.589473-5.94168 0.792919-6.55202 1.00158-7.15714 1.30414-7.62663 1.70582-7.95528 2.11271-8.28392 2.61872-8.44563 3.22906-8.44563 3.6829-8.44563 4.07936-8.35695 4.41844-8.17437 4.75752-7.99179 5.03921-7.73096 5.26352-7.38667 5.48262-7.04759 5.65998-6.63027 5.78518-6.13469 5.91038-5.64433 5.97298-4.98183 5.97298-4.14718 5.97298-3.16124 5.87386-2.36311 5.67042-1.75799 5.46697-1.15286 5.16441-0.683372 4.75752-0.354727 4.35584-0.0208663 3.84461 0.146064 3.22906 0.146064 2.42049 0.146064 1.78407-0.146064 1.31979-0.73032 0.766837-1.42934 0.490359-2.56655 0.490359-4.14718M1.54932-4.14718C1.54932-2.77 1.71104-1.84667 2.03446-1.39283 2.35789-0.933767 2.75435-0.704238 3.22906-0.704238 3.70377-0.704238 4.10544-0.933767 4.42887-1.39283 4.7523-1.85188 4.91401-2.77 4.91401-4.14718 4.91401-5.53478 4.7523-6.4529 4.42887-6.90674 4.10544-7.3658 3.70377-7.59012 3.21863-7.59012 2.74392-7.59012 2.36833-7.39189 2.08141-6.99021 1.72669-6.47898 1.54932-5.52957 1.54932-4.14718Z" fill="#4D4D4D" transform="matrix(1.00007 0 0 1 70.8661 35.1597)"/><path d="M0.683372-6.3903C0.683372-6.99543 0.834652-7.50143 1.13721-7.92398 1.43977-8.34652 1.87797-8.55518 2.45179-8.55518 2.97866-8.55518 3.41686-8.36738 3.76115-7.99179 4.10544-7.6162 4.28281-7.05802 4.28281-6.3277 4.28281-5.61825 4.10544-5.07051 3.75593-4.68448 3.40642-4.29846 2.97345-4.11066 2.46222-4.11066 1.951-4.11066 1.52846-4.29846 1.18938-4.67927 0.850302-5.05486 0.683372-5.62868 0.683372-6.3903M2.47787-7.84573C2.22226-7.84573 2.00838-7.73096 1.84145-7.51187 1.6693-7.28755 1.58584-6.88066 1.58584-6.29119 1.58584-5.74867 1.6693-5.36785 1.84145-5.14876 2.0136-4.92966 2.22748-4.82011 2.47787-4.82011 2.7387-4.82011 2.95258-4.92966 3.12473-5.15398 3.29688-5.37307 3.38034-5.77996 3.38034-6.36944 3.38034-6.91196 3.29166-7.29277 3.11951-7.51187 2.94736-7.73618 2.73348-7.84573 2.47787-7.84573M2.48309 0.307778 7.08411-8.55518 7.92398-8.55518 3.33861 0.307778 2.48309 0.307778M6.12426-1.97186C6.12426-2.57699 6.27554-3.08821 6.5781-3.51075 6.88066-3.92808 7.31885-4.13674 7.89789-4.13674 8.42477-4.13674 8.86296-3.94895 9.20725-3.57335 9.55155-3.19776 9.72369-2.63959 9.72891-1.90927 9.72369-1.19981 9.55155-0.652071 9.20204-0.266046 8.85253 0.119981 8.41955 0.307778 7.90311 0.307778 7.39189 0.307778 6.96934 0.119981 6.63027-0.260828 6.29119-0.641639 6.12426-1.21025 6.12426-1.97186M7.92398-3.42729C7.66315-3.42729 7.44927-3.31253 7.27712-3.09343 7.11019-2.86912 7.02151-2.46222 7.02151-1.87275 7.02151-1.33544 7.11019-0.954633 7.28234-0.735537 7.45448-0.511224 7.66837-0.401676 7.91876-0.401676 8.1848-0.401676 8.39868-0.511224 8.57083-0.735537 8.73776-0.954633 8.82644-1.36153 8.82644-1.951 8.82644-2.49352 8.73776-2.87433 8.56561-3.09343 8.39347-3.31774 8.17959-3.42729 7.92398-3.42729Z" fill="#4D4D4D" transform="matrix(1.00007 0 0 1 77.4024 35.1597)"/><path d="M90.7736 342.119 94.4356 342.119" stroke="#333333" stroke-width="1.42489" stroke-linejoin="round" stroke-miterlimit="10" fill="none" transform="scale(1.00007 1)"/><path d="M90.7736 264.162 94.4356 264.162" stroke="#333333" stroke-width="1.42489" stroke-linejoin="round" stroke-miterlimit="10" fill="none" transform="scale(1.00007 1)"/><path d="M90.7736 186.2 94.4356 186.2" stroke="#333333" stroke-width="1.42489" stroke-linejoin="round" stroke-miterlimit="10" fill="none" transform="scale(1.00007 1)"/><path d="M90.7736 108.244 94.4356 108.244" stroke="#333333" stroke-width="1.42489" stroke-linejoin="round" stroke-miterlimit="10" fill="none" transform="scale(1.00007 1)"/><path d="M90.7736 30.2822 94.4356 30.2822" stroke="#333333" stroke-width="1.42489" stroke-linejoin="round" stroke-miterlimit="10" fill="none" transform="scale(1.00007 1)"/><path d="M159.867 345.781 159.867 342.119" stroke="#333333" stroke-width="1.42489" stroke-linejoin="round" stroke-miterlimit="10" fill="none" transform="scale(1.00007 1)"/><path d="M268.925 345.781 268.925 342.119" stroke="#333333" stroke-width="1.42489" stroke-linejoin="round" stroke-miterlimit="10" fill="none" transform="scale(1.00007 1)"/><path d="M377.977 345.781 377.977 342.119" stroke="#333333" stroke-width="1.42489" stroke-linejoin="round" stroke-miterlimit="10" fill="none" transform="scale(1.00007 1)"/><path d="M0.907685 0 0.907685-8.41433 4.07936-8.41433C4.63753-8.41433 5.06529-8.38304 5.35742-8.33087 5.77475-8.26305 6.11904-8.13264 6.39552-7.93963 6.67722-7.74661 6.90153-7.47535 7.07367-7.12584 7.24061-6.77633 7.32929-6.39552 7.32929-5.97819 7.32929-5.26352 7.09976-4.6584 6.64592-4.16283 6.19207-3.66725 5.36785-3.42207 4.17848-3.42207L2.01881-3.42207 2.01881 0 0.907685 0M2.01881-4.41322 4.19413-4.41322C4.91401-4.41322 5.42524-4.54885 5.7278-4.8149 6.03036-5.08094 6.18164-5.45654 6.18164-5.94689 6.18164-6.29641 6.09296-6.59897 5.9156-6.84936 5.73302-7.09976 5.50349-7.26669 5.21136-7.34494 5.02356-7.3971 4.67927-7.41797 4.17326-7.41797L2.01881-7.41797Z" fill="#4D4D4D" transform="matrix(1.00007 0 0 1 152.69 358.452)"/><path d="M5.84778-6.35379 4.82011-6.27032C4.72622-6.67722 4.5958-6.96934 4.42887-7.15714 4.15239-7.44927 3.8081-7.59533 3.39599-7.59533 3.06735-7.59533 2.78043-7.50665 2.53004-7.32407 2.20661-7.08411 1.951-6.73981 1.7632-6.28076 1.57541-5.82691 1.47629-5.18006 1.47107-4.34019 1.71625-4.71578 2.02403-4.99748 2.38397-5.18006 2.7387-5.36264 3.11951-5.45654 3.51075-5.45654 4.19934-5.45654 4.78882-5.20614 5.26874-4.69492 5.75388-4.18891 5.99906-3.53684 5.99906-2.73348 5.99906-2.2014 5.8843-1.71104 5.65477-1.25719 5.42524-0.808569 5.11224-0.459059 4.71578-0.219095 4.31932 0.0208663 3.86548 0.146064 3.36469 0.146064 2.50396 0.146064 1.79972-0.172147 1.25719-0.808569 0.71467-1.43977 0.443408-2.48309 0.443408-3.93851 0.443408-5.56087 0.740754-6.74503 1.34066-7.48057 1.86753-8.12742 2.57177-8.44563 3.45859-8.44563 4.12109-8.44563 4.66362-8.26305 5.08616-7.89268 5.5087-7.51708 5.76431-7.00586 5.84778-6.35379M1.62757-2.72305C1.62757-2.36833 1.70582-2.02925 1.8571-1.70582 2.00838-1.37718 2.21704-1.132 2.48831-0.95985 2.75957-0.792919 3.04648-0.704238 3.34382-0.704238 3.78202-0.704238 4.15761-0.881601 4.4706-1.23633 4.7836-1.58584 4.9401-2.06576 4.9401-2.67089 4.9401-3.24993 4.7836-3.70898 4.47582-4.04285 4.16804-4.37671 3.7768-4.54364 3.30731-4.54364 2.83782-4.54364 2.44136-4.37671 2.11793-4.04285 1.7945-3.70898 1.62757-3.27079 1.62757-2.72305Z" fill="#4D4D4D" transform="matrix(1.00007 0 0 1 160.529 358.452)"/><path d="M0.907685 0 0.907685-8.41433 4.07936-8.41433C4.63753-8.41433 5.06529-8.38304 5.35742-8.33087 5.77475-8.26305 6.11904-8.13264 6.39552-7.93963 6.67722-7.74661 6.90153-7.47535 7.07367-7.12584 7.24061-6.77633 7.32929-6.39552 7.32929-5.97819 7.32929-5.26352 7.09976-4.6584 6.64592-4.16283 6.19207-3.66725 5.36785-3.42207 4.17848-3.42207L2.01881-3.42207 2.01881 0 0.907685 0M2.01881-4.41322 4.19413-4.41322C4.91401-4.41322 5.42524-4.54885 5.7278-4.8149 6.03036-5.08094 6.18164-5.45654 6.18164-5.94689 6.18164-6.29641 6.09296-6.59897 5.9156-6.84936 5.73302-7.09976 5.50349-7.26669 5.21136-7.34494 5.02356-7.3971 4.67927-7.41797 4.17326-7.41797L2.01881-7.41797Z" fill="#4D4D4D" transform="matrix(1.00007 0 0 1 261.756 358.452)"/><path d="M0.558174-7.30842 0.558174-8.30479 6.00428-8.30479 6.00428-7.50143C5.46697-6.92761 4.93488-6.17121 4.408-5.22701 3.88635-4.28281 3.47946-3.31253 3.19254-2.31094 2.98388-1.6067 2.85347-0.839868 2.79608 0L1.7319 0C1.74234-0.662505 1.87275-1.46064 2.12315-2.39962 2.37354-3.33339 2.72827-4.24107 3.19254-5.11224 3.65682-5.97819 4.15239-6.71373 4.67927-7.30842Z" fill="#4D4D4D" transform="matrix(1.00007 0 0 1 269.595 358.452)"/><path d="M-0.0156498 0 3.21341-8.41433 4.41322-8.41433 7.85616 0 6.58853 0 5.60782-2.54569 2.08663-2.54569 1.1633 0-0.0156498 0M2.41006-3.45337 5.26352-3.45337 4.38192-5.78518C4.11588-6.48942 3.91765-7.07367 3.78723-7.52752 3.67768-6.99021 3.5264-6.4529 3.33339-5.92081Z" fill="#4D4D4D" transform="matrix(1.00007 0 0 1 371.473 358.452)"/><path d="M0.751187 0 0.751187-8.41433 1.78407-8.41433 1.78407 0Z" fill="#4D4D4D" transform="matrix(1.00007 0 0 1 379.312 358.452)"/><path d="M0.751187 0 0.751187-8.41433 1.78407-8.41433 1.78407 0Z" fill="#4D4D4D" transform="matrix(1.00007 0 0 1 381.923 358.452)"/><path d="M-7.99179-0.855518C-8.74298-0.855518-9.3794-1.04331-9.90627-1.41891-10.4331-1.79972-10.694-2.34746-10.694-3.06213-10.694-3.72463-10.4592-4.26716-9.98974-4.70013-9.51503-5.13311-8.82644-5.3522-7.91354-5.3522-7.02151-5.3522-6.33814-5.13311-5.85821-4.69492-5.37829-4.25672-5.13311-3.71942-5.13311-3.07778-5.13311-2.44136-5.37307-1.90927-5.84778-1.48672-6.31727-1.06418-7.03194-0.855518-7.99179-0.855518M-9.80716-3.09864C-9.80716-2.78043-9.66631-2.50917-9.38983-2.30051-9.11336-2.08663-8.60213-1.9823-7.86138-1.9823-7.18844-1.9823-6.71373-2.08663-6.43725-2.30051-6.16077-2.51961-6.02514-2.78565-6.02514-3.09864-6.02514-3.42207-6.16599-3.69333-6.44247-3.90721-6.71895-4.11588-7.22495-4.22542-7.96049-4.22542-8.63865-4.22542-9.11857-4.11588-9.39505-3.902-9.66631-3.68812-9.80716-3.41686-9.80716-3.09864M0.386026-3.10386-10.694-8.85774-10.694-9.90627 0.386026-4.17326 0.386026-3.10386M-2.46744-7.65272C-3.22384-7.65272-3.86027-7.84051-4.38714-8.22132-4.9088-8.59691-5.16963-9.14987-5.16963-9.86976-5.16963-10.527-4.93488-11.0748-4.46539-11.5078-3.9959-11.9407-3.30209-12.1598-2.38919-12.1598-1.49716-12.1598-0.813786-11.9407-0.333861-11.5025 0.146064-11.0644 0.386026-10.5218 0.386026-9.87497 0.386026-9.23855 0.15128-8.71168-0.328645-8.28914-0.803352-7.86659-1.51802-7.65272-2.46744-7.65272M-4.28281-9.90627C-4.28281-9.58285-4.14196-9.31158-3.86548-9.09771-3.589-8.88383-3.07778-8.7795-2.33703-8.7795-1.6693-8.7795-1.1946-8.88904-0.918117-9.10292-0.641639-9.3168-0.500791-9.58285-0.500791-9.90106-0.500791-10.2297-0.641639-10.501-0.918117-10.7148-1.1946-10.9235-1.7006-11.0331-2.43614-11.0331-3.11951-11.0331-3.59422-10.9235-3.8707-10.7096-4.14718-10.4957-4.28281-10.2245-4.28281-9.90627Z" transform="matrix(1.00007 0 0 1 49.7072 192.732)"/><path d="M458.047 114.149 529.201 114.149 529.201 30.2822 458.047 30.2822Z" fill="#FFFFFF" transform="scale(1.00007 1)"/><path d="M466.31 59.7298 487.494 59.7298 487.494 38.5453 466.31 38.5453Z" fill="#37474F" transform="scale(1.00007 1)"/><path d="M466.31 82.8079 487.494 82.8079 487.494 61.6234 466.31 61.6234Z" fill="#4D648D" transform="scale(1.00007 1)"/><path d="M466.31 105.886 487.494 105.886 487.494 84.7015 466.31 84.7015Z" fill="#88CBEC" transform="scale(1.00007 1)"/><path d="M-0.0156498 0 3.21341-8.41433 4.41322-8.41433 7.85616 0 6.58853 0 5.60782-2.54569 2.08663-2.54569 1.1633 0-0.0156498 0M2.41006-3.45337 5.26352-3.45337 4.38192-5.78518C4.11588-6.48942 3.91765-7.07367 3.78723-7.52752 3.67768-6.99021 3.5264-6.4529 3.33339-5.92081Z" transform="matrix(1.00007 0 0 1 495.793 54.0124)"/><path d="M0.751187 0 0.751187-8.41433 1.78407-8.41433 1.78407 0Z" transform="matrix(1.00007 0 0 1 503.632 54.0124)"/><path d="M0.751187 0 0.751187-8.41433 1.78407-8.41433 1.78407 0Z" transform="matrix(1.00007 0 0 1 506.244 54.0124)"/><path d="M0.860734 0 0.860734-8.41433 4.01676-8.41433C4.6584-8.41433 5.17484-8.32565 5.56087-8.15872 5.95211-7.98658 6.25467-7.72575 6.47377-7.37102 6.69808-7.01629 6.80763-6.64592 6.80763-6.25989 6.80763-5.89995 6.70852-5.56087 6.51028-5.24266 6.31727-4.92966 6.02514-4.66883 5.62868-4.47582 6.13991-4.32454 6.53115-4.07414 6.80241-3.7142 7.07367-3.35426 7.21452-2.9265 7.21452-2.44136 7.21452-2.0449 7.13106-1.67974 6.96413-1.34066 6.7972-1.00158 6.59375-0.740754 6.34857-0.558174 6.10339-0.375593 5.79561-0.234746 5.42524-0.140848 5.05486-0.0469491 4.60624 0 4.06893 0L0.860734 0M1.97186-4.8775 3.79245-4.8775C4.28802-4.8775 4.64275-4.9088 4.85663-4.97661 5.13833-5.06008 5.3522-5.20092 5.49305-5.39394 5.63912-5.58695 5.70693-5.83213 5.70693-6.12948 5.70693-6.40595 5.64433-6.65113 5.5087-6.86501 5.37307-7.07889 5.18527-7.22495 4.93488-7.3032 4.68448-7.38145 4.26194-7.41797 3.65682-7.41797L1.97186-7.41797 1.97186-4.8775M1.97186-0.99115 4.06893-0.99115C4.42887-0.99115 4.67927-1.0068 4.82533-1.03288 5.08094-1.07983 5.29482-1.15286 5.46697-1.26241 5.63912-1.37196 5.77996-1.52324 5.89473-1.7319 6.00428-1.93535 6.06166-2.17009 6.06166-2.44136 6.06166-2.75435 5.97819-3.02561 5.81648-3.25514 5.65998-3.48989 5.43567-3.6516 5.14876-3.7455 4.86706-3.8394 4.45496-3.88635 3.91765-3.88635L1.97186-3.88635Z" transform="matrix(1.00007 0 0 1 495.793 77.0905)"/><path d="M0.391243-3.04648C0.391243-4.17326 0.704238-5.01313 1.33023-5.55565 1.8571-6.00428 2.49352-6.23381 3.24993-6.23381 4.08458-6.23381 4.76795-5.95733 5.30004-5.40959 5.83213-4.86185 6.09817-4.10023 6.09817-3.13516 6.09817-2.34746 5.98341-1.7319 5.74867-1.28328 5.51392-0.834652 5.16963-0.485141 4.721-0.234746 4.27237 0.0156498 3.78202 0.13563 3.24993 0.13563 2.39441 0.13563 1.70582-0.13563 1.17895-0.683372 0.652071-1.23111 0.391243-2.01881 0.391243-3.04648M1.45021-3.04648C1.45021-2.26921 1.62235-1.67974 1.96143-1.29371 2.30051-0.907685 2.73348-0.709454 3.24993-0.709454 3.76115-0.709454 4.18891-0.907685 4.52799-1.29893 4.86706-1.68495 5.03921-2.27964 5.03921-3.083 5.03921-3.83418 4.86706-4.408 4.52277-4.79403 4.18369-5.18006 3.75593-5.37829 3.24993-5.37829 2.73348-5.37829 2.30051-5.18527 1.96143-4.79925 1.62235-4.41322 1.45021-3.82897 1.45021-3.04648Z" transform="matrix(1.00007 0 0 1 503.632 77.0905)"/><path d="M0.73032 2.34746 0.615556 1.37718C0.839868 1.43977 1.0381 1.47107 1.20503 1.47107 1.43456 1.47107 1.61714 1.42934 1.75799 1.35631 1.89362 1.27806 2.00838 1.16851 2.09706 1.03288 2.15966 0.92855 2.26399 0.672938 2.41006 0.266046 2.43092 0.208663 2.46222 0.119981 2.50396 0.0104331L0.187797-6.09296 1.30414-6.09296 2.57177-2.56655C2.73348-2.11793 2.88477-1.64844 3.01518-1.15286 3.12994-1.62757 3.27079-2.09185 3.43772-2.54047L4.74187-6.09296 5.77475-6.09296 3.45337 0.104331C3.20819 0.772053 3.01518 1.23633 2.87433 1.48672 2.69175 1.8258 2.48309 2.0762 2.24313 2.23269 2.00838 2.39441 1.72147 2.47266 1.39283 2.47266 1.1946 2.47266 0.9755 2.43092 0.73032 2.34746Z" transform="matrix(1.00007 0 0 1 510.169 77.0905)"/><path d="M0.359943-1.82058 1.38239-1.9823C1.43977-1.57019 1.60149-1.25719 1.86232-1.0381 2.12315-0.819002 2.48831-0.709454 2.96301-0.709454 3.43772-0.709454 3.78723-0.808569 4.01676-1.00158 4.24629-1.1946 4.36106-1.41891 4.36106-1.67974 4.36106-1.91448 4.26194-2.09706 4.05849-2.23269 3.91765-2.32659 3.56292-2.44136 2.99953-2.5822 2.24313-2.77522 1.71625-2.93693 1.42412-3.07778 1.132-3.21863 0.912901-3.41164 0.761619-3.65682 0.610339-3.90721 0.532091-4.17848 0.532091-4.47582 0.532091-4.74708 0.594689-4.99748 0.719887-5.23222 0.845084-5.46175 1.01201-5.65477 1.2259-5.80605 1.38761-5.92603 1.6067-6.02514 1.88318-6.10861 2.16488-6.19207 2.46222-6.23381 2.77522-6.23381 3.25514-6.23381 3.67768-6.16077 4.03763-6.02514 4.39757-5.88951 4.66362-5.70171 4.83576-5.46697 5.00791-5.23222 5.12789-4.91401 5.19571-4.52277L4.18369-4.38192C4.13674-4.70013 4.00633-4.9401 3.78202-5.11746 3.56292-5.29482 3.25514-5.3835 2.85347-5.3835 2.37876-5.3835 2.03968-5.30526 1.83623-5.14876 1.63279-4.99226 1.53367-4.80446 1.53367-4.5958 1.53367-4.46017 1.57541-4.34019 1.65887-4.23586 1.74234-4.12631 1.87275-4.03241 2.05533-3.95938 2.15966-3.92286 2.46222-3.83418 2.96823-3.69333 3.69855-3.50032 4.20456-3.33861 4.49669-3.21863 4.7836-3.09343 5.01313-2.91085 5.17484-2.6761 5.34177-2.43614 5.42002-2.14401 5.42524-1.78929 5.42002-1.44499 5.32091-1.12156 5.12268-0.819002 4.91923-0.511224 4.63232-0.276478 4.25151-0.109548 3.87592 0.0521657 3.44294 0.13563 2.96823 0.13563 2.17531 0.13563 1.57019-0.0260828 1.15808-0.354727 0.740754-0.683372 0.474709-1.17373 0.359943-1.82058Z" transform="matrix(1.00007 0 0 1 516.045 77.0905)"/><path d="M4.84098-3.29688 4.84098-4.28802 8.40912-4.29324 8.40912-1.16851C7.86138-0.735537 7.29277-0.406893 6.71373-0.187797 6.13469 0.0312994 5.53478 0.146064 4.92445 0.146064 4.09501 0.146064 3.34382-0.0312994 2.67089-0.386026 1.99795-0.740754 1.48672-1.25198 1.14243-1.92492 0.798136-2.59264 0.625989-3.33861 0.625989-4.16804 0.625989-4.98704 0.798136-5.74867 1.13721-6.45812 1.48151-7.16757 1.97186-7.69445 2.61872-8.03874 3.26036-8.38304 4.00111-8.55518 4.83576-8.55518 5.4461-8.55518 5.99384-8.45607 6.48942-8.25784 6.97978-8.06482 7.3658-7.78834 7.64228-7.43883 7.92398-7.08411 8.13264-6.62505 8.2787-6.06166L7.27712-5.78518C7.15192-6.21294 6.99543-6.5468 6.80763-6.79198 6.61983-7.03716 6.34857-7.23539 6.00428-7.38145 5.65477-7.52752 5.26874-7.60576 4.84098-7.60576 4.33497-7.60576 3.89678-7.52752 3.52119-7.37102 3.15081-7.21452 2.85347-7.01108 2.62394-6.76068 2.39962-6.50507 2.22226-6.22859 2.09706-5.92603 1.87797-5.40959 1.77364-4.84098 1.77364-4.23586 1.77364-3.48467 1.90405-2.85868 2.15966-2.35268 2.42049-1.84667 2.79608-1.47107 3.28644-1.2259 3.78202-0.980716 4.30367-0.860734 4.86185-0.860734 5.34177-0.860734 5.81126-0.954633 6.27032-1.13721 6.72938-1.32501 7.07889-1.52324 7.31364-1.7319L7.31364-3.29688Z" transform="matrix(1.00007 0 0 1 495.793 100.169)"/><path d="M0.782487-7.22495 0.782487-8.41433 1.81537-8.41433 1.81537-7.22495 0.782487-7.22495M0.782487 0 0.782487-6.09296 1.81537-6.09296 1.81537 0Z" transform="matrix(1.00007 0 0 1 504.935 100.169)"/><path d="M0.761619 0 0.761619-6.09296 1.69017-6.09296 1.69017-5.16963C1.93013-5.6026 2.14923-5.88951 2.34746-6.02514 2.5509-6.16077 2.77-6.23381 3.01518-6.23381 3.35947-6.23381 3.7142-6.11904 4.07414-5.89995L3.71942-4.9401C3.46381-5.09138 3.21341-5.16441 2.96301-5.16441 2.73348-5.16441 2.53004-5.09659 2.35268-4.96096 2.17531-4.82533 2.0449-4.63753 1.96665-4.39757 1.85188-4.0272 1.7945-3.62552 1.7945-3.19254L1.7945 0Z" transform="matrix(1.00007 0 0 1 507.546 100.169)"/><path d="M0.751187 0 0.751187-8.41433 1.78407-8.41433 1.78407 0Z" transform="matrix(1.00007 0 0 1 511.46 100.169)"/><path d="M0.359943-1.82058 1.38239-1.9823C1.43977-1.57019 1.60149-1.25719 1.86232-1.0381 2.12315-0.819002 2.48831-0.709454 2.96301-0.709454 3.43772-0.709454 3.78723-0.808569 4.01676-1.00158 4.24629-1.1946 4.36106-1.41891 4.36106-1.67974 4.36106-1.91448 4.26194-2.09706 4.05849-2.23269 3.91765-2.32659 3.56292-2.44136 2.99953-2.5822 2.24313-2.77522 1.71625-2.93693 1.42412-3.07778 1.132-3.21863 0.912901-3.41164 0.761619-3.65682 0.610339-3.90721 0.532091-4.17848 0.532091-4.47582 0.532091-4.74708 0.594689-4.99748 0.719887-5.23222 0.845084-5.46175 1.01201-5.65477 1.2259-5.80605 1.38761-5.92603 1.6067-6.02514 1.88318-6.10861 2.16488-6.19207 2.46222-6.23381 2.77522-6.23381 3.25514-6.23381 3.67768-6.16077 4.03763-6.02514 4.39757-5.88951 4.66362-5.70171 4.83576-5.46697 5.00791-5.23222 5.12789-4.91401 5.19571-4.52277L4.18369-4.38192C4.13674-4.70013 4.00633-4.9401 3.78202-5.11746 3.56292-5.29482 3.25514-5.3835 2.85347-5.3835 2.37876-5.3835 2.03968-5.30526 1.83623-5.14876 1.63279-4.99226 1.53367-4.80446 1.53367-4.5958 1.53367-4.46017 1.57541-4.34019 1.65887-4.23586 1.74234-4.12631 1.87275-4.03241 2.05533-3.95938 2.15966-3.92286 2.46222-3.83418 2.96823-3.69333 3.69855-3.50032 4.20456-3.33861 4.49669-3.21863 4.7836-3.09343 5.01313-2.91085 5.17484-2.6761 5.34177-2.43614 5.42002-2.14401 5.42524-1.78929 5.42002-1.44499 5.32091-1.12156 5.12268-0.819002 4.91923-0.511224 4.63232-0.276478 4.25151-0.109548 3.87592 0.0521657 3.44294 0.13563 2.96823 0.13563 2.17531 0.13563 1.57019-0.0260828 1.15808-0.354727 0.740754-0.683372 0.474709-1.17373 0.359943-1.82058Z" transform="matrix(1.00007 0 0 1 514.071 100.169)"/><path d="M458.047 189.57 586.025 189.57 586.025 128.782 458.047 128.782Z" fill="#FFFFFF" transform="scale(1.00007 1)"/><path d="M480.227 147.639C480.227 152.068 473.581 152.068 473.581 147.639 473.581 143.211 480.227 143.211 480.227 147.639" fill="#FB1E20" transform="scale(1.00007 1)"/><path d="M476.904 165.548 481.38 173.3 472.429 173.3Z" fill="#008000" transform="scale(1.00007 1)"/><path d="M0.860734 0 0.860734-8.41433 4.01676-8.41433C4.6584-8.41433 5.17484-8.32565 5.56087-8.15872 5.95211-7.98658 6.25467-7.72575 6.47377-7.37102 6.69808-7.01629 6.80763-6.64592 6.80763-6.25989 6.80763-5.89995 6.70852-5.56087 6.51028-5.24266 6.31727-4.92966 6.02514-4.66883 5.62868-4.47582 6.13991-4.32454 6.53115-4.07414 6.80241-3.7142 7.07367-3.35426 7.21452-2.9265 7.21452-2.44136 7.21452-2.0449 7.13106-1.67974 6.96413-1.34066 6.7972-1.00158 6.59375-0.740754 6.34857-0.558174 6.10339-0.375593 5.79561-0.234746 5.42524-0.140848 5.05486-0.0469491 4.60624 0 4.06893 0L0.860734 0M1.97186-4.8775 3.79245-4.8775C4.28802-4.8775 4.64275-4.9088 4.85663-4.97661 5.13833-5.06008 5.3522-5.20092 5.49305-5.39394 5.63912-5.58695 5.70693-5.83213 5.70693-6.12948 5.70693-6.40595 5.64433-6.65113 5.5087-6.86501 5.37307-7.07889 5.18527-7.22495 4.93488-7.3032 4.68448-7.38145 4.26194-7.41797 3.65682-7.41797L1.97186-7.41797 1.97186-4.8775M1.97186-0.99115 4.06893-0.99115C4.42887-0.99115 4.67927-1.0068 4.82533-1.03288 5.08094-1.07983 5.29482-1.15286 5.46697-1.26241 5.63912-1.37196 5.77996-1.52324 5.89473-1.7319 6.00428-1.93535 6.06166-2.17009 6.06166-2.44136 6.06166-2.75435 5.97819-3.02561 5.81648-3.25514 5.65998-3.48989 5.43567-3.6516 5.14876-3.7455 4.86706-3.8394 4.45496-3.88635 3.91765-3.88635L1.97186-3.88635Z" transform="matrix(1.00007 0 0 1 495.793 152.512)"/><path d="M0.391243-3.04648C0.391243-4.17326 0.704238-5.01313 1.33023-5.55565 1.8571-6.00428 2.49352-6.23381 3.24993-6.23381 4.08458-6.23381 4.76795-5.95733 5.30004-5.40959 5.83213-4.86185 6.09817-4.10023 6.09817-3.13516 6.09817-2.34746 5.98341-1.7319 5.74867-1.28328 5.51392-0.834652 5.16963-0.485141 4.721-0.234746 4.27237 0.0156498 3.78202 0.13563 3.24993 0.13563 2.39441 0.13563 1.70582-0.13563 1.17895-0.683372 0.652071-1.23111 0.391243-2.01881 0.391243-3.04648M1.45021-3.04648C1.45021-2.26921 1.62235-1.67974 1.96143-1.29371 2.30051-0.907685 2.73348-0.709454 3.24993-0.709454 3.76115-0.709454 4.18891-0.907685 4.52799-1.29893 4.86706-1.68495 5.03921-2.27964 5.03921-3.083 5.03921-3.83418 4.86706-4.408 4.52277-4.79403 4.18369-5.18006 3.75593-5.37829 3.24993-5.37829 2.73348-5.37829 2.30051-5.18527 1.96143-4.79925 1.62235-4.41322 1.45021-3.82897 1.45021-3.04648Z" transform="matrix(1.00007 0 0 1 503.632 152.512)"/><path d="M0.73032 2.34746 0.615556 1.37718C0.839868 1.43977 1.0381 1.47107 1.20503 1.47107 1.43456 1.47107 1.61714 1.42934 1.75799 1.35631 1.89362 1.27806 2.00838 1.16851 2.09706 1.03288 2.15966 0.92855 2.26399 0.672938 2.41006 0.266046 2.43092 0.208663 2.46222 0.119981 2.50396 0.0104331L0.187797-6.09296 1.30414-6.09296 2.57177-2.56655C2.73348-2.11793 2.88477-1.64844 3.01518-1.15286 3.12994-1.62757 3.27079-2.09185 3.43772-2.54047L4.74187-6.09296 5.77475-6.09296 3.45337 0.104331C3.20819 0.772053 3.01518 1.23633 2.87433 1.48672 2.69175 1.8258 2.48309 2.0762 2.24313 2.23269 2.00838 2.39441 1.72147 2.47266 1.39283 2.47266 1.1946 2.47266 0.9755 2.43092 0.73032 2.34746Z" transform="matrix(1.00007 0 0 1 510.169 152.512)"/><path d="M0.359943-1.82058 1.38239-1.9823C1.43977-1.57019 1.60149-1.25719 1.86232-1.0381 2.12315-0.819002 2.48831-0.709454 2.96301-0.709454 3.43772-0.709454 3.78723-0.808569 4.01676-1.00158 4.24629-1.1946 4.36106-1.41891 4.36106-1.67974 4.36106-1.91448 4.26194-2.09706 4.05849-2.23269 3.91765-2.32659 3.56292-2.44136 2.99953-2.5822 2.24313-2.77522 1.71625-2.93693 1.42412-3.07778 1.132-3.21863 0.912901-3.41164 0.761619-3.65682 0.610339-3.90721 0.532091-4.17848 0.532091-4.47582 0.532091-4.74708 0.594689-4.99748 0.719887-5.23222 0.845084-5.46175 1.01201-5.65477 1.2259-5.80605 1.38761-5.92603 1.6067-6.02514 1.88318-6.10861 2.16488-6.19207 2.46222-6.23381 2.77522-6.23381 3.25514-6.23381 3.67768-6.16077 4.03763-6.02514 4.39757-5.88951 4.66362-5.70171 4.83576-5.46697 5.00791-5.23222 5.12789-4.91401 5.19571-4.52277L4.18369-4.38192C4.13674-4.70013 4.00633-4.9401 3.78202-5.11746 3.56292-5.29482 3.25514-5.3835 2.85347-5.3835 2.37876-5.3835 2.03968-5.30526 1.83623-5.14876 1.63279-4.99226 1.53367-4.80446 1.53367-4.5958 1.53367-4.46017 1.57541-4.34019 1.65887-4.23586 1.74234-4.12631 1.87275-4.03241 2.05533-3.95938 2.15966-3.92286 2.46222-3.83418 2.96823-3.69333 3.69855-3.50032 4.20456-3.33861 4.49669-3.21863 4.7836-3.09343 5.01313-2.91085 5.17484-2.6761 5.34177-2.43614 5.42002-2.14401 5.42524-1.78929 5.42002-1.44499 5.32091-1.12156 5.12268-0.819002 4.91923-0.511224 4.63232-0.276478 4.25151-0.109548 3.87592 0.0521657 3.44294 0.13563 2.96823 0.13563 2.17531 0.13563 1.57019-0.0260828 1.15808-0.354727 0.740754-0.683372 0.474709-1.17373 0.359943-1.82058Z" transform="matrix(1.00007 0 0 1 516.045 152.512)"/><path d="M2.74914 2.47266C2.18053 1.75277 1.69539 0.912901 1.30414-0.0521657 0.907685-1.01723 0.709454-2.0136 0.709454-3.04648 0.709454-3.95938 0.860734-4.83055 1.15286-5.6652 1.49716-6.63027 2.02925-7.59533 2.74914-8.55518L3.48989-8.55518C3.02561-7.76226 2.71783-7.19366 2.57177-6.84936 2.33703-6.32249 2.15444-5.77475 2.01881-5.20092 1.8571-4.48104 1.77364-3.76637 1.77364-3.04126 1.77364-1.19981 2.34746 0.636421 3.48989 2.47266Z" transform="matrix(1.00007 0 0 1 525.187 152.512)"/><path d="M0.526874-2.70219 1.57541-2.79608C1.62757-2.37354 1.74234-2.02925 1.92492-1.75799 2.1075-1.48672 2.38919-1.27284 2.77-1.10591 3.15603-0.938983 3.58379-0.855518 4.06371-0.855518 4.48625-0.855518 4.86185-0.918117 5.18527-1.04331 5.51392-1.16851 5.75388-1.34588 5.9156-1.56497 6.07209-1.78407 6.15034-2.02403 6.15034-2.28486 6.15034-2.54569 6.07731-2.78043 5.92081-2.97345 5.76953-3.17168 5.51392-3.33861 5.16441-3.47424 4.9401-3.5577 4.4393-3.69855 3.66725-3.88113 2.8952-4.06893 2.35268-4.24107 2.0449-4.408 1.64322-4.61667 1.34066-4.8775 1.14243-5.19049 0.949417-5.50349 0.850302-5.853 0.850302-6.23902 0.850302-6.66156 0.970282-7.05802 1.21025-7.4284 1.45021-7.79878 1.80493-8.07526 2.26921-8.26827 2.72827-8.46128 3.24471-8.55518 3.8081-8.55518 4.43409-8.55518 4.98183-8.45607 5.46175-8.25262 5.93646-8.05439 6.30162-7.75705 6.55723-7.3658 6.81285-6.97978 6.95369-6.53637 6.96934-6.04079L5.90516-5.96254C5.84778-6.49463 5.65477-6.89631 5.32091-7.16757 4.99226-7.43883 4.5019-7.57447 3.85505-7.57447 3.18211-7.57447 2.69175-7.44927 2.38397-7.20409 2.0762-6.95891 1.92492-6.66156 1.92492-6.31205 1.92492-6.00949 2.02925-5.7591 2.24834-5.56609 2.46222-5.37307 3.02561-5.16963 3.92808-4.96618 4.83055-4.76273 5.45132-4.58537 5.7904-4.42887 6.28076-4.20456 6.6407-3.91765 6.87545-3.57335 7.11019-3.22384 7.22495-2.82738 7.22495-2.37354 7.22495-1.93013 7.09454-1.50759 6.83893-1.11113 6.58332-0.71467 6.21294-0.406893 5.73302-0.187797 5.25309 0.0312994 4.71578 0.146064 4.11588 0.146064 3.35426 0.146064 2.71262 0.0312994 2.2014-0.187797 1.68495-0.41211 1.28328-0.74597 0.99115-1.18938 0.699022-1.638 0.542524-2.13879 0.526874-2.70219Z" transform="matrix(1.00007 0 0 1 529.101 152.512)"/><path d="M4.7523-2.23269 5.76953-2.10228C5.65477-1.39804 5.37307-0.850302 4.91401-0.453842 4.46017-0.0625989 3.89678 0.13563 3.22906 0.13563 2.39441 0.13563 1.72669-0.13563 1.22068-0.678154 0.71467-1.2259 0.459059-2.00838 0.459059-3.02561 0.459059-3.6829 0.568606-4.25672 0.787703-4.7523 1.0068-5.24266 1.33544-5.61303 1.78407-5.86343 2.22748-6.10861 2.71262-6.23381 3.23428-6.23381 3.89678-6.23381 4.4393-6.06688 4.86185-5.7278 5.27917-5.39394 5.55044-4.91923 5.67042-4.30367L4.66362-4.14718C4.56972-4.55929 4.40279-4.86706 4.15761-5.07051 3.91243-5.27917 3.6203-5.3835 3.27601-5.3835 2.75435-5.3835 2.33181-5.19571 2.00838-4.82533 1.68495-4.44974 1.52324-3.86027 1.52324-3.0517 1.52324-2.23269 1.67974-1.638 1.99273-1.26763 2.30573-0.897251 2.71262-0.709454 3.21863-0.709454 3.62552-0.709454 3.9646-0.834652 4.23586-1.08505 4.50712-1.33544 4.67927-1.71625 4.7523-2.23269Z" transform="matrix(1.00007 0 0 1 536.94 152.512)"/><path d="M0.391243-3.04648C0.391243-4.17326 0.704238-5.01313 1.33023-5.55565 1.8571-6.00428 2.49352-6.23381 3.24993-6.23381 4.08458-6.23381 4.76795-5.95733 5.30004-5.40959 5.83213-4.86185 6.09817-4.10023 6.09817-3.13516 6.09817-2.34746 5.98341-1.7319 5.74867-1.28328 5.51392-0.834652 5.16963-0.485141 4.721-0.234746 4.27237 0.0156498 3.78202 0.13563 3.24993 0.13563 2.39441 0.13563 1.70582-0.13563 1.17895-0.683372 0.652071-1.23111 0.391243-2.01881 0.391243-3.04648M1.45021-3.04648C1.45021-2.26921 1.62235-1.67974 1.96143-1.29371 2.30051-0.907685 2.73348-0.709454 3.24993-0.709454 3.76115-0.709454 4.18891-0.907685 4.52799-1.29893 4.86706-1.68495 5.03921-2.27964 5.03921-3.083 5.03921-3.83418 4.86706-4.408 4.52277-4.79403 4.18369-5.18006 3.75593-5.37829 3.24993-5.37829 2.73348-5.37829 2.30051-5.18527 1.96143-4.79925 1.62235-4.41322 1.45021-3.82897 1.45021-3.04648Z" transform="matrix(1.00007 0 0 1 542.816 152.512)"/><path d="M3.03083-0.923333 3.17689-0.0104331C2.88998 0.0521657 2.62915 0.0782487 2.39962 0.0782487 2.02403 0.0782487 1.7319 0.0208663 1.52846-0.099115 1.31979-0.213879 1.17373-0.370377 1.09026-0.56339 1.0068-0.756403 0.965066-1.1633 0.965066-1.78407L0.965066-5.28961 0.208663-5.28961 0.208663-6.09296 0.965066-6.09296 0.965066-7.60576 1.99273-8.22132 1.99273-6.09296 3.03083-6.09296 3.03083-5.28961 1.99273-5.28961 1.99273-1.72669C1.99273-1.43456 2.00838-1.24155 2.0449-1.15808 2.08141-1.07461 2.13879-1.0068 2.22226-0.95985 2.30573-0.907685 2.42571-0.881601 2.57699-0.881601 2.69175-0.881601 2.84303-0.897251 3.03083-0.923333Z" transform="matrix(1.00007 0 0 1 549.352 152.512)"/><path d="M0.751187 0 0.751187-8.41433 1.78407-8.41433 1.78407 0Z" transform="matrix(1.00007 0 0 1 552.618 152.512)"/><path d="M4.7523-0.751187C4.36627-0.427758 4.00111-0.198231 3.64639-0.0625989 3.29166 0.073032 2.91085 0.13563 2.50917 0.13563 1.83623 0.13563 1.32501-0.0260828 0.965066-0.354727 0.605123-0.678154 0.422542-1.09548 0.422542-1.6067 0.422542-1.90405 0.490359-2.17531 0.625989-2.42571 0.761619-2.67089 0.9442-2.86912 1.1633-3.0204 1.38239-3.16646 1.62757-3.28122 1.90405-3.35947 2.1075-3.41164 2.41527-3.46381 2.82217-3.51075 3.65682-3.60987 4.27237-3.72985 4.66362-3.86548 4.66883-4.01155 4.66883-4.10023 4.66883-4.13674 4.66883-4.55929 4.57494-4.85663 4.37671-5.02878 4.11588-5.25831 3.72463-5.37829 3.20298-5.37829 2.71783-5.37829 2.35789-5.28961 2.12836-5.12268 1.89362-4.95053 1.72147-4.64797 1.61192-4.22021L0.605123-4.35584C0.693804-4.78882 0.845084-5.13833 1.05375-5.40437 1.26763-5.67042 1.57019-5.87386 1.96665-6.01471 2.36833-6.16077 2.82738-6.23381 3.34904-6.23381 3.8707-6.23381 4.29324-6.17121 4.62189-6.04601 4.94531-5.92603 5.18527-5.76953 5.33656-5.58695 5.48784-5.39916 5.59738-5.16441 5.65998-4.88271 5.69128-4.70535 5.70693-4.39235 5.70693-3.9333L5.70693-2.55612C5.70693-1.59105 5.73302-0.985932 5.77475-0.73032 5.8217-0.474709 5.90516-0.234746 6.03558 0L4.95575 0C4.85141-0.213879 4.7836-0.464275 4.7523-0.751187M4.66362-3.05691C4.28802-2.90563 3.72985-2.77522 2.97866-2.67089 2.5509-2.60829 2.25356-2.54047 2.0762-2.46222 1.89883-2.38397 1.7632-2.27443 1.6693-2.12836 1.57541-1.97708 1.52846-1.81537 1.52846-1.638 1.52846-1.36153 1.63279-1.132 1.84145-0.949417 2.05011-0.761619 2.35268-0.672938 2.75435-0.672938 3.15081-0.672938 3.50554-0.756403 3.81853-0.933767 4.12631-1.10591 4.35584-1.34588 4.49669-1.64844 4.61145-1.87797 4.66362-2.22226 4.66362-2.68132Z" transform="matrix(1.00007 0 0 1 555.229 152.512)"/><path d="M0.772053 0 0.772053-6.09296 1.70582-6.09296 1.70582-5.22701C2.14923-5.89473 2.79608-6.23381 3.64117-6.23381 4.01155-6.23381 4.35062-6.16599 4.6584-6.03558 4.96618-5.89995 5.19571-5.7278 5.34699-5.51392 5.50349-5.30004 5.60782-5.04443 5.67042-4.7523 5.70693-4.55929 5.7278-4.22542 5.7278-3.7455L5.7278 0 4.69492 0 4.69492-3.70898C4.69492-4.12631 4.65318-4.44452 4.57494-4.65318 4.49147-4.86185 4.35062-5.02356 4.14718-5.14876 3.94373-5.27396 3.70377-5.33656 3.42729-5.33656 2.98388-5.33656 2.60829-5.19571 2.28486-4.91923 1.96665-4.63753 1.80493-4.11066 1.80493-3.32818L1.80493 0Z" transform="matrix(1.00007 0 0 1 561.765 152.512)"/><path d="M4.72622 0 4.72622-0.766837C4.34019-0.16693 3.77158 0.13563 3.02561 0.13563 2.54047 0.13563 2.09185 0.00521657 1.68495-0.266046 1.27806-0.532091 0.95985-0.907685 0.735537-1.38761 0.511224-1.86753 0.401676-2.41527 0.401676-3.04126 0.401676-3.6516 0.500791-4.19934 0.704238-4.69492 0.907685-5.19049 1.21025-5.5713 1.61714-5.83735 2.02403-6.09817 2.47787-6.23381 2.97866-6.23381 3.34382-6.23381 3.67247-6.15556 3.95938-5.99906 4.24629-5.84256 4.48104-5.64433 4.6584-5.39394L4.6584-8.41433 5.68607-8.41433 5.68607 0 4.72622 0M1.46064-3.04126C1.46064-2.25878 1.62757-1.67974 1.95622-1.29371 2.28486-0.902467 2.6761-0.709454 3.11951-0.709454 3.57335-0.709454 3.95416-0.897251 4.27237-1.26763 4.58537-1.63279 4.74708-2.19618 4.74708-2.95258 4.74708-3.78723 4.58537-4.40279 4.26194-4.79403 3.94373-5.18006 3.54727-5.37829 3.07778-5.37829 2.61872-5.37829 2.23269-5.19049 1.92492-4.8149 1.61714-4.4393 1.46064-3.84983 1.46064-3.04126Z" transform="matrix(1.00007 0 0 1 568.301 152.512)"/><path d="M1.45021 2.47266 0.709454 2.47266C1.8571 0.636421 2.42571-1.19981 2.42571-3.04126 2.42571-3.76115 2.34746-4.47582 2.18053-5.18006 2.05011-5.75388 1.86753-6.30684 1.638-6.83371 1.48672-7.17801 1.17895-7.75183 0.709454-8.55518L1.45021-8.55518C2.17009-7.59533 2.70219-6.63027 3.04648-5.6652 3.34382-4.83055 3.48989-3.95938 3.48989-3.04648 3.48989-2.0136 3.29166-1.01723 2.8952-0.0521657 2.49874 0.912901 2.01881 1.75277 1.45021 2.47266Z" transform="matrix(1.00007 0 0 1 574.838 152.512)"/><path d="M4.84098-3.29688 4.84098-4.28802 8.40912-4.29324 8.40912-1.16851C7.86138-0.735537 7.29277-0.406893 6.71373-0.187797 6.13469 0.0312994 5.53478 0.146064 4.92445 0.146064 4.09501 0.146064 3.34382-0.0312994 2.67089-0.386026 1.99795-0.740754 1.48672-1.25198 1.14243-1.92492 0.798136-2.59264 0.625989-3.33861 0.625989-4.16804 0.625989-4.98704 0.798136-5.74867 1.13721-6.45812 1.48151-7.16757 1.97186-7.69445 2.61872-8.03874 3.26036-8.38304 4.00111-8.55518 4.83576-8.55518 5.4461-8.55518 5.99384-8.45607 6.48942-8.25784 6.97978-8.06482 7.3658-7.78834 7.64228-7.43883 7.92398-7.08411 8.13264-6.62505 8.2787-6.06166L7.27712-5.78518C7.15192-6.21294 6.99543-6.5468 6.80763-6.79198 6.61983-7.03716 6.34857-7.23539 6.00428-7.38145 5.65477-7.52752 5.26874-7.60576 4.84098-7.60576 4.33497-7.60576 3.89678-7.52752 3.52119-7.37102 3.15081-7.21452 2.85347-7.01108 2.62394-6.76068 2.39962-6.50507 2.22226-6.22859 2.09706-5.92603 1.87797-5.40959 1.77364-4.84098 1.77364-4.23586 1.77364-3.48467 1.90405-2.85868 2.15966-2.35268 2.42049-1.84667 2.79608-1.47107 3.28644-1.2259 3.78202-0.980716 4.30367-0.860734 4.86185-0.860734 5.34177-0.860734 5.81126-0.954633 6.27032-1.13721 6.72938-1.32501 7.07889-1.52324 7.31364-1.7319L7.31364-3.29688Z" transform="matrix(1.00007 0 0 1 495.793 175.59)"/><path d="M0.782487-7.22495 0.782487-8.41433 1.81537-8.41433 1.81537-7.22495 0.782487-7.22495M0.782487 0 0.782487-6.09296 1.81537-6.09296 1.81537 0Z" transform="matrix(1.00007 0 0 1 504.935 175.59)"/><path d="M0.761619 0 0.761619-6.09296 1.69017-6.09296 1.69017-5.16963C1.93013-5.6026 2.14923-5.88951 2.34746-6.02514 2.5509-6.16077 2.77-6.23381 3.01518-6.23381 3.35947-6.23381 3.7142-6.11904 4.07414-5.89995L3.71942-4.9401C3.46381-5.09138 3.21341-5.16441 2.96301-5.16441 2.73348-5.16441 2.53004-5.09659 2.35268-4.96096 2.17531-4.82533 2.0449-4.63753 1.96665-4.39757 1.85188-4.0272 1.7945-3.62552 1.7945-3.19254L1.7945 0Z" transform="matrix(1.00007 0 0 1 507.546 175.59)"/><path d="M0.751187 0 0.751187-8.41433 1.78407-8.41433 1.78407 0Z" transform="matrix(1.00007 0 0 1 511.46 175.59)"/><path d="M0.359943-1.82058 1.38239-1.9823C1.43977-1.57019 1.60149-1.25719 1.86232-1.0381 2.12315-0.819002 2.48831-0.709454 2.96301-0.709454 3.43772-0.709454 3.78723-0.808569 4.01676-1.00158 4.24629-1.1946 4.36106-1.41891 4.36106-1.67974 4.36106-1.91448 4.26194-2.09706 4.05849-2.23269 3.91765-2.32659 3.56292-2.44136 2.99953-2.5822 2.24313-2.77522 1.71625-2.93693 1.42412-3.07778 1.132-3.21863 0.912901-3.41164 0.761619-3.65682 0.610339-3.90721 0.532091-4.17848 0.532091-4.47582 0.532091-4.74708 0.594689-4.99748 0.719887-5.23222 0.845084-5.46175 1.01201-5.65477 1.2259-5.80605 1.38761-5.92603 1.6067-6.02514 1.88318-6.10861 2.16488-6.19207 2.46222-6.23381 2.77522-6.23381 3.25514-6.23381 3.67768-6.16077 4.03763-6.02514 4.39757-5.88951 4.66362-5.70171 4.83576-5.46697 5.00791-5.23222 5.12789-4.91401 5.19571-4.52277L4.18369-4.38192C4.13674-4.70013 4.00633-4.9401 3.78202-5.11746 3.56292-5.29482 3.25514-5.3835 2.85347-5.3835 2.37876-5.3835 2.03968-5.30526 1.83623-5.14876 1.63279-4.99226 1.53367-4.80446 1.53367-4.5958 1.53367-4.46017 1.57541-4.34019 1.65887-4.23586 1.74234-4.12631 1.87275-4.03241 2.05533-3.95938 2.15966-3.92286 2.46222-3.83418 2.96823-3.69333 3.69855-3.50032 4.20456-3.33861 4.49669-3.21863 4.7836-3.09343 5.01313-2.91085 5.17484-2.6761 5.34177-2.43614 5.42002-2.14401 5.42524-1.78929 5.42002-1.44499 5.32091-1.12156 5.12268-0.819002 4.91923-0.511224 4.63232-0.276478 4.25151-0.109548 3.87592 0.0521657 3.44294 0.13563 2.96823 0.13563 2.17531 0.13563 1.57019-0.0260828 1.15808-0.354727 0.740754-0.683372 0.474709-1.17373 0.359943-1.82058Z" transform="matrix(1.00007 0 0 1 514.071 175.59)"/><path d="M2.74914 2.47266C2.18053 1.75277 1.69539 0.912901 1.30414-0.0521657 0.907685-1.01723 0.709454-2.0136 0.709454-3.04648 0.709454-3.95938 0.860734-4.83055 1.15286-5.6652 1.49716-6.63027 2.02925-7.59533 2.74914-8.55518L3.48989-8.55518C3.02561-7.76226 2.71783-7.19366 2.57177-6.84936 2.33703-6.32249 2.15444-5.77475 2.01881-5.20092 1.8571-4.48104 1.77364-3.76637 1.77364-3.04126 1.77364-1.19981 2.34746 0.636421 3.48989 2.47266Z" transform="matrix(1.00007 0 0 1 523.213 175.59)"/><path d="M0.526874-2.70219 1.57541-2.79608C1.62757-2.37354 1.74234-2.02925 1.92492-1.75799 2.1075-1.48672 2.38919-1.27284 2.77-1.10591 3.15603-0.938983 3.58379-0.855518 4.06371-0.855518 4.48625-0.855518 4.86185-0.918117 5.18527-1.04331 5.51392-1.16851 5.75388-1.34588 5.9156-1.56497 6.07209-1.78407 6.15034-2.02403 6.15034-2.28486 6.15034-2.54569 6.07731-2.78043 5.92081-2.97345 5.76953-3.17168 5.51392-3.33861 5.16441-3.47424 4.9401-3.5577 4.4393-3.69855 3.66725-3.88113 2.8952-4.06893 2.35268-4.24107 2.0449-4.408 1.64322-4.61667 1.34066-4.8775 1.14243-5.19049 0.949417-5.50349 0.850302-5.853 0.850302-6.23902 0.850302-6.66156 0.970282-7.05802 1.21025-7.4284 1.45021-7.79878 1.80493-8.07526 2.26921-8.26827 2.72827-8.46128 3.24471-8.55518 3.8081-8.55518 4.43409-8.55518 4.98183-8.45607 5.46175-8.25262 5.93646-8.05439 6.30162-7.75705 6.55723-7.3658 6.81285-6.97978 6.95369-6.53637 6.96934-6.04079L5.90516-5.96254C5.84778-6.49463 5.65477-6.89631 5.32091-7.16757 4.99226-7.43883 4.5019-7.57447 3.85505-7.57447 3.18211-7.57447 2.69175-7.44927 2.38397-7.20409 2.0762-6.95891 1.92492-6.66156 1.92492-6.31205 1.92492-6.00949 2.02925-5.7591 2.24834-5.56609 2.46222-5.37307 3.02561-5.16963 3.92808-4.96618 4.83055-4.76273 5.45132-4.58537 5.7904-4.42887 6.28076-4.20456 6.6407-3.91765 6.87545-3.57335 7.11019-3.22384 7.22495-2.82738 7.22495-2.37354 7.22495-1.93013 7.09454-1.50759 6.83893-1.11113 6.58332-0.71467 6.21294-0.406893 5.73302-0.187797 5.25309 0.0312994 4.71578 0.146064 4.11588 0.146064 3.35426 0.146064 2.71262 0.0312994 2.2014-0.187797 1.68495-0.41211 1.28328-0.74597 0.99115-1.18938 0.699022-1.638 0.542524-2.13879 0.526874-2.70219Z" transform="matrix(1.00007 0 0 1 527.126 175.59)"/><path d="M4.7523-2.23269 5.76953-2.10228C5.65477-1.39804 5.37307-0.850302 4.91401-0.453842 4.46017-0.0625989 3.89678 0.13563 3.22906 0.13563 2.39441 0.13563 1.72669-0.13563 1.22068-0.678154 0.71467-1.2259 0.459059-2.00838 0.459059-3.02561 0.459059-3.6829 0.568606-4.25672 0.787703-4.7523 1.0068-5.24266 1.33544-5.61303 1.78407-5.86343 2.22748-6.10861 2.71262-6.23381 3.23428-6.23381 3.89678-6.23381 4.4393-6.06688 4.86185-5.7278 5.27917-5.39394 5.55044-4.91923 5.67042-4.30367L4.66362-4.14718C4.56972-4.55929 4.40279-4.86706 4.15761-5.07051 3.91243-5.27917 3.6203-5.3835 3.27601-5.3835 2.75435-5.3835 2.33181-5.19571 2.00838-4.82533 1.68495-4.44974 1.52324-3.86027 1.52324-3.0517 1.52324-2.23269 1.67974-1.638 1.99273-1.26763 2.30573-0.897251 2.71262-0.709454 3.21863-0.709454 3.62552-0.709454 3.9646-0.834652 4.23586-1.08505 4.50712-1.33544 4.67927-1.71625 4.7523-2.23269Z" transform="matrix(1.00007 0 0 1 534.966 175.59)"/><path d="M0.391243-3.04648C0.391243-4.17326 0.704238-5.01313 1.33023-5.55565 1.8571-6.00428 2.49352-6.23381 3.24993-6.23381 4.08458-6.23381 4.76795-5.95733 5.30004-5.40959 5.83213-4.86185 6.09817-4.10023 6.09817-3.13516 6.09817-2.34746 5.98341-1.7319 5.74867-1.28328 5.51392-0.834652 5.16963-0.485141 4.721-0.234746 4.27237 0.0156498 3.78202 0.13563 3.24993 0.13563 2.39441 0.13563 1.70582-0.13563 1.17895-0.683372 0.652071-1.23111 0.391243-2.01881 0.391243-3.04648M1.45021-3.04648C1.45021-2.26921 1.62235-1.67974 1.96143-1.29371 2.30051-0.907685 2.73348-0.709454 3.24993-0.709454 3.76115-0.709454 4.18891-0.907685 4.52799-1.29893 4.86706-1.68495 5.03921-2.27964 5.03921-3.083 5.03921-3.83418 4.86706-4.408 4.52277-4.79403 4.18369-5.18006 3.75593-5.37829 3.24993-5.37829 2.73348-5.37829 2.30051-5.18527 1.96143-4.79925 1.62235-4.41322 1.45021-3.82897 1.45021-3.04648Z" transform="matrix(1.00007 0 0 1 540.842 175.59)"/><path d="M3.03083-0.923333 3.17689-0.0104331C2.88998 0.0521657 2.62915 0.0782487 2.39962 0.0782487 2.02403 0.0782487 1.7319 0.0208663 1.52846-0.099115 1.31979-0.213879 1.17373-0.370377 1.09026-0.56339 1.0068-0.756403 0.965066-1.1633 0.965066-1.78407L0.965066-5.28961 0.208663-5.28961 0.208663-6.09296 0.965066-6.09296 0.965066-7.60576 1.99273-8.22132 1.99273-6.09296 3.03083-6.09296 3.03083-5.28961 1.99273-5.28961 1.99273-1.72669C1.99273-1.43456 2.00838-1.24155 2.0449-1.15808 2.08141-1.07461 2.13879-1.0068 2.22226-0.95985 2.30573-0.907685 2.42571-0.881601 2.57699-0.881601 2.69175-0.881601 2.84303-0.897251 3.03083-0.923333Z" transform="matrix(1.00007 0 0 1 547.378 175.59)"/><path d="M0.751187 0 0.751187-8.41433 1.78407-8.41433 1.78407 0Z" transform="matrix(1.00007 0 0 1 550.643 175.59)"/><path d="M4.7523-0.751187C4.36627-0.427758 4.00111-0.198231 3.64639-0.0625989 3.29166 0.073032 2.91085 0.13563 2.50917 0.13563 1.83623 0.13563 1.32501-0.0260828 0.965066-0.354727 0.605123-0.678154 0.422542-1.09548 0.422542-1.6067 0.422542-1.90405 0.490359-2.17531 0.625989-2.42571 0.761619-2.67089 0.9442-2.86912 1.1633-3.0204 1.38239-3.16646 1.62757-3.28122 1.90405-3.35947 2.1075-3.41164 2.41527-3.46381 2.82217-3.51075 3.65682-3.60987 4.27237-3.72985 4.66362-3.86548 4.66883-4.01155 4.66883-4.10023 4.66883-4.13674 4.66883-4.55929 4.57494-4.85663 4.37671-5.02878 4.11588-5.25831 3.72463-5.37829 3.20298-5.37829 2.71783-5.37829 2.35789-5.28961 2.12836-5.12268 1.89362-4.95053 1.72147-4.64797 1.61192-4.22021L0.605123-4.35584C0.693804-4.78882 0.845084-5.13833 1.05375-5.40437 1.26763-5.67042 1.57019-5.87386 1.96665-6.01471 2.36833-6.16077 2.82738-6.23381 3.34904-6.23381 3.8707-6.23381 4.29324-6.17121 4.62189-6.04601 4.94531-5.92603 5.18527-5.76953 5.33656-5.58695 5.48784-5.39916 5.59738-5.16441 5.65998-4.88271 5.69128-4.70535 5.70693-4.39235 5.70693-3.9333L5.70693-2.55612C5.70693-1.59105 5.73302-0.985932 5.77475-0.73032 5.8217-0.474709 5.90516-0.234746 6.03558 0L4.95575 0C4.85141-0.213879 4.7836-0.464275 4.7523-0.751187M4.66362-3.05691C4.28802-2.90563 3.72985-2.77522 2.97866-2.67089 2.5509-2.60829 2.25356-2.54047 2.0762-2.46222 1.89883-2.38397 1.7632-2.27443 1.6693-2.12836 1.57541-1.97708 1.52846-1.81537 1.52846-1.638 1.52846-1.36153 1.63279-1.132 1.84145-0.949417 2.05011-0.761619 2.35268-0.672938 2.75435-0.672938 3.15081-0.672938 3.50554-0.756403 3.81853-0.933767 4.12631-1.10591 4.35584-1.34588 4.49669-1.64844 4.61145-1.87797 4.66362-2.22226 4.66362-2.68132Z" transform="matrix(1.00007 0 0 1 553.255 175.59)"/><path d="M0.772053 0 0.772053-6.09296 1.70582-6.09296 1.70582-5.22701C2.14923-5.89473 2.79608-6.23381 3.64117-6.23381 4.01155-6.23381 4.35062-6.16599 4.6584-6.03558 4.96618-5.89995 5.19571-5.7278 5.34699-5.51392 5.50349-5.30004 5.60782-5.04443 5.67042-4.7523 5.70693-4.55929 5.7278-4.22542 5.7278-3.7455L5.7278 0 4.69492 0 4.69492-3.70898C4.69492-4.12631 4.65318-4.44452 4.57494-4.65318 4.49147-4.86185 4.35062-5.02356 4.14718-5.14876 3.94373-5.27396 3.70377-5.33656 3.42729-5.33656 2.98388-5.33656 2.60829-5.19571 2.28486-4.91923 1.96665-4.63753 1.80493-4.11066 1.80493-3.32818L1.80493 0Z" transform="matrix(1.00007 0 0 1 559.791 175.59)"/><path d="M4.72622 0 4.72622-0.766837C4.34019-0.16693 3.77158 0.13563 3.02561 0.13563 2.54047 0.13563 2.09185 0.00521657 1.68495-0.266046 1.27806-0.532091 0.95985-0.907685 0.735537-1.38761 0.511224-1.86753 0.401676-2.41527 0.401676-3.04126 0.401676-3.6516 0.500791-4.19934 0.704238-4.69492 0.907685-5.19049 1.21025-5.5713 1.61714-5.83735 2.02403-6.09817 2.47787-6.23381 2.97866-6.23381 3.34382-6.23381 3.67247-6.15556 3.95938-5.99906 4.24629-5.84256 4.48104-5.64433 4.6584-5.39394L4.6584-8.41433 5.68607-8.41433 5.68607 0 4.72622 0M1.46064-3.04126C1.46064-2.25878 1.62757-1.67974 1.95622-1.29371 2.28486-0.902467 2.6761-0.709454 3.11951-0.709454 3.57335-0.709454 3.95416-0.897251 4.27237-1.26763 4.58537-1.63279 4.74708-2.19618 4.74708-2.95258 4.74708-3.78723 4.58537-4.40279 4.26194-4.79403 3.94373-5.18006 3.54727-5.37829 3.07778-5.37829 2.61872-5.37829 2.23269-5.19049 1.92492-4.8149 1.61714-4.4393 1.46064-3.84983 1.46064-3.04126Z" transform="matrix(1.00007 0 0 1 566.327 175.59)"/><path d="M1.45021 2.47266 0.709454 2.47266C1.8571 0.636421 2.42571-1.19981 2.42571-3.04126 2.42571-3.76115 2.34746-4.47582 2.18053-5.18006 2.05011-5.75388 1.86753-6.30684 1.638-6.83371 1.48672-7.17801 1.17895-7.75183 0.709454-8.55518L1.45021-8.55518C2.17009-7.59533 2.70219-6.63027 3.04648-5.6652 3.34382-4.83055 3.48989-3.95938 3.48989-3.04648 3.48989-2.0136 3.29166-1.01723 2.8952-0.0521657 2.49874 0.912901 2.01881 1.75277 1.45021 2.47266Z" transform="matrix(1.00007 0 0 1 572.864 175.59)"/><path d="M0.365161-6.87023 0.631205-7.68401C1.24155-7.47013 1.67974-7.28234 1.95622-7.12584 1.88318-7.81965 1.84667-8.29435 1.84145-8.55518L2.6761-8.55518C2.66045-8.17959 2.61872-7.70488 2.54047-7.13106 2.93693-7.32929 3.38556-7.51708 3.89678-7.68401L4.16283-6.87023C3.67247-6.70852 3.19776-6.59897 2.73348-6.5468 2.96301-6.34335 3.29166-5.98341 3.71942-5.46175L3.03083-4.97661C2.80652-5.27917 2.54569-5.68607 2.24313-6.20772 1.96143-5.67042 1.71104-5.25831 1.49716-4.97661L0.819002-5.46175C1.26241-6.00949 1.58062-6.36944 1.77364-6.5468 1.27806-6.6407 0.808569-6.75025 0.365161-6.87023Z" transform="matrix(1.00007 0 0 1 303.658 399.266)"/><path d="M0.897251 0 0.897251-8.41433 2.03968-8.41433 6.45812-1.80493 6.45812-8.41433 7.5223-8.41433 7.5223 0 6.37987 0 1.96143-6.6094 1.96143 0Z" transform="matrix(1.00007 0 0 1 311.497 399.266)"/><path d="M4.76795 0 4.76795-0.897251C4.29324-0.208663 3.6516 0.13563 2.8326 0.13563 2.47266 0.13563 2.13879 0.0678154 1.8258-0.0678154 1.51802-0.208663 1.28328-0.38081 1.132-0.589473 0.980716-0.798136 0.876384-1.05375 0.813786-1.35631 0.772053-1.55454 0.751187-1.87797 0.751187-2.31616L0.751187-6.09296 1.78407-6.09296 1.78407-2.71262C1.78407-2.17531 1.80493-1.81015 1.84667-1.62235 1.91448-1.35109 2.05011-1.13721 2.25878-0.985932 2.47266-0.829436 2.73348-0.751187 3.04126-0.751187 3.34904-0.751187 3.64117-0.829436 3.91243-0.99115 4.18369-1.14765 4.37671-1.36674 4.49147-1.638 4.60102-1.90927 4.6584-2.31094 4.6584-2.82738L4.6584-6.09296 5.69128-6.09296 5.69128 0Z" transform="matrix(1.00007 0 0 1 319.985 399.266)"/><path d="M0.772053 0 0.772053-6.09296 1.7006-6.09296 1.7006-5.23744C1.8884-5.54 2.14401-5.77996 2.46222-5.95733 2.78043-6.13991 3.14038-6.23381 3.54727-6.23381 3.9959-6.23381 4.36627-6.13991 4.6584-5.95211 4.94531-5.76431 5.14876-5.50349 5.26874-5.16441 5.74867-5.87386 6.37465-6.23381 7.15192-6.23381 7.75183-6.23381 8.22132-6.06688 8.54475-5.7278 8.86818-5.39394 9.02989-4.8775 9.02989-4.18369L9.02989 0 8.00744 0 8.00744-3.8394C8.00744-4.25151 7.97093-4.54885 7.90311-4.73143 7.8353-4.91401 7.71531-5.06008 7.53795-5.16963 7.3658-5.27917 7.15714-5.33656 6.92239-5.33656 6.48942-5.33656 6.13469-5.19571 5.853-4.9088 5.5713-4.62189 5.43045-4.16804 5.43045-3.54205L5.43045 0 4.39757 0 4.39757-3.95938C4.39757-4.41844 4.30889-4.76273 4.14196-4.99226 3.97503-5.22179 3.69855-5.33656 3.31774-5.33656 3.02561-5.33656 2.75957-5.25831 2.50917-5.10703 2.26399-4.95575 2.08663-4.73143 1.97186-4.43409 1.86232-4.14196 1.80493-3.7142 1.80493-3.16124L1.80493 0Z" transform="matrix(1.00007 0 0 1 326.521 399.266)"/><path d="M1.72669 0 0.766837 0 0.766837-8.41433 1.79972-8.41433 1.79972-5.40959C2.23791-5.95733 2.79608-6.23381 3.47424-6.23381 3.84461-6.23381 4.19934-6.15556 4.53842-6.00428 4.87228-5.853 5.14876-5.63912 5.36264-5.36785 5.57652-5.09659 5.74867-4.76273 5.86865-4.37671 5.99384-3.99068 6.05123-3.57857 6.05123-3.14038 6.05123-2.09706 5.79561-1.28849 5.27917-0.719887 4.76273-0.146064 4.14196 0.13563 3.42207 0.13563 2.70219 0.13563 2.13879-0.161714 1.72669-0.761619L1.72669 0M1.71625-3.09343C1.71625-2.36311 1.81537-1.83623 2.0136-1.50759 2.33703-0.9755 2.78043-0.709454 3.33339-0.709454 3.78723-0.709454 4.17326-0.907685 4.50712-1.29893 4.83576-1.69017 4.99748-2.27443 4.99748-3.0517 4.99748-3.84983 4.84098-4.43409 4.52277-4.8149 4.20978-5.19571 3.82897-5.3835 3.38034-5.3835 2.9265-5.3835 2.54047-5.18527 2.21183-4.79403 1.87797-4.40279 1.71625-3.83418 1.71625-3.09343Z" transform="matrix(1.00007 0 0 1 336.311 399.266)"/><path d="M4.94531-1.96143 6.01471-1.83102C5.84778-1.20503 5.53478-0.725104 5.08094-0.38081 4.62189-0.0365161 4.04285 0.13563 3.33339 0.13563 2.44136 0.13563 1.73712-0.13563 1.21546-0.683372 0.693804-1.23633 0.427758-2.00316 0.427758-2.99431 0.427758-4.02198 0.693804-4.8149 1.22068-5.3835 1.75277-5.94689 2.43614-6.23381 3.27601-6.23381 4.08979-6.23381 4.75752-5.95211 5.27396-5.39916 5.7904-4.8462 6.04601-4.06371 6.04601-3.05691 6.04601-2.99953 6.04601-2.90563 6.04079-2.78565L1.49716-2.78565C1.53367-2.11271 1.72669-1.60149 2.06576-1.24676 2.40484-0.886817 2.8326-0.709454 3.33861-0.709454 3.71942-0.709454 4.04285-0.808569 4.30889-1.01201 4.57494-1.21025 4.78882-1.52846 4.94531-1.96143M1.55454-3.63074 4.95575-3.63074C4.91401-4.14718 4.7836-4.52799 4.56972-4.7836 4.24107-5.18527 3.81332-5.3835 3.28644-5.3835 2.81173-5.3835 2.41527-5.22179 2.09185-4.9088 1.76842-4.59059 1.59105-4.16283 1.55454-3.63074Z" transform="matrix(1.00007 0 0 1 342.847 399.266)"/><path d="M0.761619 0 0.761619-6.09296 1.69017-6.09296 1.69017-5.16963C1.93013-5.6026 2.14923-5.88951 2.34746-6.02514 2.5509-6.16077 2.77-6.23381 3.01518-6.23381 3.35947-6.23381 3.7142-6.11904 4.07414-5.89995L3.71942-4.9401C3.46381-5.09138 3.21341-5.16441 2.96301-5.16441 2.73348-5.16441 2.53004-5.09659 2.35268-4.96096 2.17531-4.82533 2.0449-4.63753 1.96665-4.39757 1.85188-4.0272 1.7945-3.62552 1.7945-3.19254L1.7945 0Z" transform="matrix(1.00007 0 0 1 349.384 399.266)"/><path d="M0.359943-1.82058 1.38239-1.9823C1.43977-1.57019 1.60149-1.25719 1.86232-1.0381 2.12315-0.819002 2.48831-0.709454 2.96301-0.709454 3.43772-0.709454 3.78723-0.808569 4.01676-1.00158 4.24629-1.1946 4.36106-1.41891 4.36106-1.67974 4.36106-1.91448 4.26194-2.09706 4.05849-2.23269 3.91765-2.32659 3.56292-2.44136 2.99953-2.5822 2.24313-2.77522 1.71625-2.93693 1.42412-3.07778 1.132-3.21863 0.912901-3.41164 0.761619-3.65682 0.610339-3.90721 0.532091-4.17848 0.532091-4.47582 0.532091-4.74708 0.594689-4.99748 0.719887-5.23222 0.845084-5.46175 1.01201-5.65477 1.2259-5.80605 1.38761-5.92603 1.6067-6.02514 1.88318-6.10861 2.16488-6.19207 2.46222-6.23381 2.77522-6.23381 3.25514-6.23381 3.67768-6.16077 4.03763-6.02514 4.39757-5.88951 4.66362-5.70171 4.83576-5.46697 5.00791-5.23222 5.12789-4.91401 5.19571-4.52277L4.18369-4.38192C4.13674-4.70013 4.00633-4.9401 3.78202-5.11746 3.56292-5.29482 3.25514-5.3835 2.85347-5.3835 2.37876-5.3835 2.03968-5.30526 1.83623-5.14876 1.63279-4.99226 1.53367-4.80446 1.53367-4.5958 1.53367-4.46017 1.57541-4.34019 1.65887-4.23586 1.74234-4.12631 1.87275-4.03241 2.05533-3.95938 2.15966-3.92286 2.46222-3.83418 2.96823-3.69333 3.69855-3.50032 4.20456-3.33861 4.49669-3.21863 4.7836-3.09343 5.01313-2.91085 5.17484-2.6761 5.34177-2.43614 5.42002-2.14401 5.42524-1.78929 5.42002-1.44499 5.32091-1.12156 5.12268-0.819002 4.91923-0.511224 4.63232-0.276478 4.25151-0.109548 3.87592 0.0521657 3.44294 0.13563 2.96823 0.13563 2.17531 0.13563 1.57019-0.0260828 1.15808-0.354727 0.740754-0.683372 0.474709-1.17373 0.359943-1.82058Z" transform="matrix(1.00007 0 0 1 353.298 399.266)"/><path d="M3.03083-0.923333 3.17689-0.0104331C2.88998 0.0521657 2.62915 0.0782487 2.39962 0.0782487 2.02403 0.0782487 1.7319 0.0208663 1.52846-0.099115 1.31979-0.213879 1.17373-0.370377 1.09026-0.56339 1.0068-0.756403 0.965066-1.1633 0.965066-1.78407L0.965066-5.28961 0.208663-5.28961 0.208663-6.09296 0.965066-6.09296 0.965066-7.60576 1.99273-8.22132 1.99273-6.09296 3.03083-6.09296 3.03083-5.28961 1.99273-5.28961 1.99273-1.72669C1.99273-1.43456 2.00838-1.24155 2.0449-1.15808 2.08141-1.07461 2.13879-1.0068 2.22226-0.95985 2.30573-0.907685 2.42571-0.881601 2.57699-0.881601 2.69175-0.881601 2.84303-0.897251 3.03083-0.923333Z" transform="matrix(1.00007 0 0 1 362.439 399.266)"/><path d="M0.391243-3.04648C0.391243-4.17326 0.704238-5.01313 1.33023-5.55565 1.8571-6.00428 2.49352-6.23381 3.24993-6.23381 4.08458-6.23381 4.76795-5.95733 5.30004-5.40959 5.83213-4.86185 6.09817-4.10023 6.09817-3.13516 6.09817-2.34746 5.98341-1.7319 5.74867-1.28328 5.51392-0.834652 5.16963-0.485141 4.721-0.234746 4.27237 0.0156498 3.78202 0.13563 3.24993 0.13563 2.39441 0.13563 1.70582-0.13563 1.17895-0.683372 0.652071-1.23111 0.391243-2.01881 0.391243-3.04648M1.45021-3.04648C1.45021-2.26921 1.62235-1.67974 1.96143-1.29371 2.30051-0.907685 2.73348-0.709454 3.24993-0.709454 3.76115-0.709454 4.18891-0.907685 4.52799-1.29893 4.86706-1.68495 5.03921-2.27964 5.03921-3.083 5.03921-3.83418 4.86706-4.408 4.52277-4.79403 4.18369-5.18006 3.75593-5.37829 3.24993-5.37829 2.73348-5.37829 2.30051-5.18527 1.96143-4.79925 1.62235-4.41322 1.45021-3.82897 1.45021-3.04648Z" transform="matrix(1.00007 0 0 1 365.704 399.266)"/><path d="M0.391243-3.04648C0.391243-4.17326 0.704238-5.01313 1.33023-5.55565 1.8571-6.00428 2.49352-6.23381 3.24993-6.23381 4.08458-6.23381 4.76795-5.95733 5.30004-5.40959 5.83213-4.86185 6.09817-4.10023 6.09817-3.13516 6.09817-2.34746 5.98341-1.7319 5.74867-1.28328 5.51392-0.834652 5.16963-0.485141 4.721-0.234746 4.27237 0.0156498 3.78202 0.13563 3.24993 0.13563 2.39441 0.13563 1.70582-0.13563 1.17895-0.683372 0.652071-1.23111 0.391243-2.01881 0.391243-3.04648M1.45021-3.04648C1.45021-2.26921 1.62235-1.67974 1.96143-1.29371 2.30051-0.907685 2.73348-0.709454 3.24993-0.709454 3.76115-0.709454 4.18891-0.907685 4.52799-1.29893 4.86706-1.68495 5.03921-2.27964 5.03921-3.083 5.03921-3.83418 4.86706-4.408 4.52277-4.79403 4.18369-5.18006 3.75593-5.37829 3.24993-5.37829 2.73348-5.37829 2.30051-5.18527 1.96143-4.79925 1.62235-4.41322 1.45021-3.82897 1.45021-3.04648Z" transform="matrix(1.00007 0 0 1 372.241 399.266)"/><path d="M0.751187 0 0.751187-8.41433 1.78407-8.41433 1.78407 0Z" transform="matrix(1.00007 0 0 1 382.042 399.266)"/><path d="M0.391243-3.04648C0.391243-4.17326 0.704238-5.01313 1.33023-5.55565 1.8571-6.00428 2.49352-6.23381 3.24993-6.23381 4.08458-6.23381 4.76795-5.95733 5.30004-5.40959 5.83213-4.86185 6.09817-4.10023 6.09817-3.13516 6.09817-2.34746 5.98341-1.7319 5.74867-1.28328 5.51392-0.834652 5.16963-0.485141 4.721-0.234746 4.27237 0.0156498 3.78202 0.13563 3.24993 0.13563 2.39441 0.13563 1.70582-0.13563 1.17895-0.683372 0.652071-1.23111 0.391243-2.01881 0.391243-3.04648M1.45021-3.04648C1.45021-2.26921 1.62235-1.67974 1.96143-1.29371 2.30051-0.907685 2.73348-0.709454 3.24993-0.709454 3.76115-0.709454 4.18891-0.907685 4.52799-1.29893 4.86706-1.68495 5.03921-2.27964 5.03921-3.083 5.03921-3.83418 4.86706-4.408 4.52277-4.79403 4.18369-5.18006 3.75593-5.37829 3.24993-5.37829 2.73348-5.37829 2.30051-5.18527 1.96143-4.79925 1.62235-4.41322 1.45021-3.82897 1.45021-3.04648Z" transform="matrix(1.00007 0 0 1 384.654 399.266)"/><path d="M1.89883 0 0.0365161-6.09296 1.1007-6.09296 2.07098-2.57699 2.43092-1.26763C2.44657-1.33544 2.55612-1.75277 2.74914-2.52482L3.71942-6.09296 4.77838-6.09296 5.69128-2.56134 5.99906-1.39283 6.34857-2.57177 7.39189-6.09296 8.39347-6.09296 6.48942 0 5.4148 0 4.44974-3.6516 4.20978-4.6897 2.97866 0Z" transform="matrix(1.00007 0 0 1 391.19 399.266)"/><path d="M3.03083-0.923333 3.17689-0.0104331C2.88998 0.0521657 2.62915 0.0782487 2.39962 0.0782487 2.02403 0.0782487 1.7319 0.0208663 1.52846-0.099115 1.31979-0.213879 1.17373-0.370377 1.09026-0.56339 1.0068-0.756403 0.965066-1.1633 0.965066-1.78407L0.965066-5.28961 0.208663-5.28961 0.208663-6.09296 0.965066-6.09296 0.965066-7.60576 1.99273-8.22132 1.99273-6.09296 3.03083-6.09296 3.03083-5.28961 1.99273-5.28961 1.99273-1.72669C1.99273-1.43456 2.00838-1.24155 2.0449-1.15808 2.08141-1.07461 2.13879-1.0068 2.22226-0.95985 2.30573-0.907685 2.42571-0.881601 2.57699-0.881601 2.69175-0.881601 2.84303-0.897251 3.03083-0.923333Z" transform="matrix(1.00007 0 0 1 402.943 399.266)"/><path d="M0.391243-3.04648C0.391243-4.17326 0.704238-5.01313 1.33023-5.55565 1.8571-6.00428 2.49352-6.23381 3.24993-6.23381 4.08458-6.23381 4.76795-5.95733 5.30004-5.40959 5.83213-4.86185 6.09817-4.10023 6.09817-3.13516 6.09817-2.34746 5.98341-1.7319 5.74867-1.28328 5.51392-0.834652 5.16963-0.485141 4.721-0.234746 4.27237 0.0156498 3.78202 0.13563 3.24993 0.13563 2.39441 0.13563 1.70582-0.13563 1.17895-0.683372 0.652071-1.23111 0.391243-2.01881 0.391243-3.04648M1.45021-3.04648C1.45021-2.26921 1.62235-1.67974 1.96143-1.29371 2.30051-0.907685 2.73348-0.709454 3.24993-0.709454 3.76115-0.709454 4.18891-0.907685 4.52799-1.29893 4.86706-1.68495 5.03921-2.27964 5.03921-3.083 5.03921-3.83418 4.86706-4.408 4.52277-4.79403 4.18369-5.18006 3.75593-5.37829 3.24993-5.37829 2.73348-5.37829 2.30051-5.18527 1.96143-4.79925 1.62235-4.41322 1.45021-3.82897 1.45021-3.04648Z" transform="matrix(1.00007 0 0 1 406.208 399.266)"/><path d="M0.359943-1.82058 1.38239-1.9823C1.43977-1.57019 1.60149-1.25719 1.86232-1.0381 2.12315-0.819002 2.48831-0.709454 2.96301-0.709454 3.43772-0.709454 3.78723-0.808569 4.01676-1.00158 4.24629-1.1946 4.36106-1.41891 4.36106-1.67974 4.36106-1.91448 4.26194-2.09706 4.05849-2.23269 3.91765-2.32659 3.56292-2.44136 2.99953-2.5822 2.24313-2.77522 1.71625-2.93693 1.42412-3.07778 1.132-3.21863 0.912901-3.41164 0.761619-3.65682 0.610339-3.90721 0.532091-4.17848 0.532091-4.47582 0.532091-4.74708 0.594689-4.99748 0.719887-5.23222 0.845084-5.46175 1.01201-5.65477 1.2259-5.80605 1.38761-5.92603 1.6067-6.02514 1.88318-6.10861 2.16488-6.19207 2.46222-6.23381 2.77522-6.23381 3.25514-6.23381 3.67768-6.16077 4.03763-6.02514 4.39757-5.88951 4.66362-5.70171 4.83576-5.46697 5.00791-5.23222 5.12789-4.91401 5.19571-4.52277L4.18369-4.38192C4.13674-4.70013 4.00633-4.9401 3.78202-5.11746 3.56292-5.29482 3.25514-5.3835 2.85347-5.3835 2.37876-5.3835 2.03968-5.30526 1.83623-5.14876 1.63279-4.99226 1.53367-4.80446 1.53367-4.5958 1.53367-4.46017 1.57541-4.34019 1.65887-4.23586 1.74234-4.12631 1.87275-4.03241 2.05533-3.95938 2.15966-3.92286 2.46222-3.83418 2.96823-3.69333 3.69855-3.50032 4.20456-3.33861 4.49669-3.21863 4.7836-3.09343 5.01313-2.91085 5.17484-2.6761 5.34177-2.43614 5.42002-2.14401 5.42524-1.78929 5.42002-1.44499 5.32091-1.12156 5.12268-0.819002 4.91923-0.511224 4.63232-0.276478 4.25151-0.109548 3.87592 0.0521657 3.44294 0.13563 2.96823 0.13563 2.17531 0.13563 1.57019-0.0260828 1.15808-0.354727 0.740754-0.683372 0.474709-1.17373 0.359943-1.82058Z" transform="matrix(1.00007 0 0 1 416.009 399.266)"/><path d="M0.772053 0 0.772053-8.41433 1.80493-8.41433 1.80493-5.39394C2.29008-5.95211 2.8952-6.23381 3.63074-6.23381 4.08458-6.23381 4.47582-6.14512 4.80968-5.96254 5.14354-5.78518 5.37829-5.54 5.52435-5.22701 5.6652-4.91401 5.73823-4.46017 5.73823-3.86027L5.73823 0 4.70535 0 4.70535-3.86027C4.70535-4.37671 4.5958-4.7523 4.37149-4.98704 4.14718-5.22701 3.82897-5.34177 3.42207-5.34177 3.11429-5.34177 2.82738-5.26352 2.55612-5.10181 2.28486-4.94531 2.09706-4.73143 1.9823-4.46017 1.86753-4.18891 1.80493-3.81332 1.80493-3.33339L1.80493 0Z" transform="matrix(1.00007 0 0 1 421.886 399.266)"/><path d="M0.391243-3.04648C0.391243-4.17326 0.704238-5.01313 1.33023-5.55565 1.8571-6.00428 2.49352-6.23381 3.24993-6.23381 4.08458-6.23381 4.76795-5.95733 5.30004-5.40959 5.83213-4.86185 6.09817-4.10023 6.09817-3.13516 6.09817-2.34746 5.98341-1.7319 5.74867-1.28328 5.51392-0.834652 5.16963-0.485141 4.721-0.234746 4.27237 0.0156498 3.78202 0.13563 3.24993 0.13563 2.39441 0.13563 1.70582-0.13563 1.17895-0.683372 0.652071-1.23111 0.391243-2.01881 0.391243-3.04648M1.45021-3.04648C1.45021-2.26921 1.62235-1.67974 1.96143-1.29371 2.30051-0.907685 2.73348-0.709454 3.24993-0.709454 3.76115-0.709454 4.18891-0.907685 4.52799-1.29893 4.86706-1.68495 5.03921-2.27964 5.03921-3.083 5.03921-3.83418 4.86706-4.408 4.52277-4.79403 4.18369-5.18006 3.75593-5.37829 3.24993-5.37829 2.73348-5.37829 2.30051-5.18527 1.96143-4.79925 1.62235-4.41322 1.45021-3.82897 1.45021-3.04648Z" transform="matrix(1.00007 0 0 1 428.422 399.266)"/><path d="M1.89883 0 0.0365161-6.09296 1.1007-6.09296 2.07098-2.57699 2.43092-1.26763C2.44657-1.33544 2.55612-1.75277 2.74914-2.52482L3.71942-6.09296 4.77838-6.09296 5.69128-2.56134 5.99906-1.39283 6.34857-2.57177 7.39189-6.09296 8.39347-6.09296 6.48942 0 5.4148 0 4.44974-3.6516 4.20978-4.6897 2.97866 0Z" transform="matrix(1.00007 0 0 1 434.959 399.266)"/></g></svg>