<svg width="605" height="422" xmlns="http://www.w3.org/2000/svg" xmlns:xlink="http://www.w3.org/1999/xlink" xml:space="preserve" overflow="hidden"><defs><clipPath id="clip0"><rect x="0" y="0" width="605" height="422"/></clipPath></defs><g clip-path="url(#clip0)"><path d="M-60.4956-42.2 665.451-42.2 665.451 464.2-60.4956 464.2Z" fill="#FFFFFF" transform="scale(1.00007 1)"/><path d="M-60.4956-42.2 665.451-42.2 665.451 464.2-60.4956 464.2Z" fill="#FFFFFF" transform="scale(1.00007 1)"/><path d="M0 422 604.956 422 604.956 0 0 0Z" stroke="#FFFFFF" stroke-width="1.42489" stroke-linecap="round" stroke-linejoin="round" stroke-miterlimit="10" fill="none" transform="scale(1.00007 1)"/><path d="M94.4356 342.119 479.335 342.119 479.335 30.2822 94.4356 30.2822Z" fill="#EBEBEB" transform="scale(1.00007 1)"/><path d="M142.548 342.119 431.223 342.119 431.223 178.407 142.548 178.407Z" fill="#4770B7" transform="scale(1.00007 1)"/><path d="M0.631205-2.84825 2.03446-2.96823C2.13879-2.28486 2.37876-1.77364 2.75957-1.42934 3.13516-1.08505 3.59422-0.912901 4.12631-0.912901 4.76795-0.912901 5.31569-1.15286 5.7591-1.638 6.20251-2.12315 6.42682-2.77 6.42682-3.56814 6.42682-4.32976 6.21294-4.93488 5.78518-5.37307 5.35742-5.81126 4.79403-6.03558 4.10544-6.03558 3.67247-6.03558 3.28644-5.93646 2.93693-5.73823 2.59264-5.54522 2.32138-5.28961 2.12315-4.98183L0.865952-5.14354 1.9197-10.7305 7.3345-10.7305 7.3345-9.45243 2.9891-9.45243 2.40484-6.53115C3.05691-6.98499 3.74028-7.21452 4.46017-7.21452 5.40959-7.21452 6.21294-6.88588 6.86501-6.22859 7.51708-5.56609 7.84573-4.721 7.84573-3.68812 7.84573-2.70219 7.55882-1.85188 6.98499-1.13721 6.28597-0.255612 5.33134 0.187797 4.12631 0.187797 3.13516 0.187797 2.32659-0.0938983 1.7006-0.646855 1.07983-1.19981 0.719887-1.93535 0.631205-2.84825Z" transform="matrix(1.00007 0 0 1 271.694 172.298)"/><path d="M7.65272-1.28328 7.65272 0 0.459059 0C0.448626-0.323428 0.500791-0.631205 0.615556-0.92855 0.798136-1.41891 1.09026-1.89883 1.49716-2.37354 1.89883-2.84825 2.48309-3.40121 3.24471-4.02198 4.42366-4.99226 5.22701-5.7591 5.63912-6.3277 6.05644-6.89109 6.26511-7.4284 6.26511-7.93441 6.26511-8.46128 6.07209-8.90991 5.6965-9.27507 5.31569-9.63501 4.82533-9.81759 4.21499-9.81759 3.57335-9.81759 3.05691-9.62458 2.67089-9.23855 2.28486-8.85253 2.09185-8.32044 2.08663-7.63706L0.71467-7.77791C0.808569-8.80036 1.15808-9.58285 1.77364-10.1202 2.38919-10.6575 3.21341-10.9235 4.24629-10.9235 5.28961-10.9235 6.11382-10.6366 6.72416-10.0576 7.3345-9.47851 7.63706-8.75863 7.63706-7.90311 7.63706-7.47013 7.54838-7.04238 7.37102-6.61983 7.19366-6.19729 6.89631-5.75388 6.4842-5.28961 6.06688-4.82533 5.3835-4.18891 4.42366-3.37512 3.6203-2.70219 3.10908-2.24834 2.87955-2.00838 2.65002-1.76842 2.46222-1.52846 2.31616-1.28328Z" transform="matrix(1.00007 0 0 1 280.147 172.298)"/><path d="M0.881601-8.26827C0.881601-9.04554 1.07983-9.70283 1.47107-10.2506 1.86232-10.7931 2.42571-11.0644 3.16646-11.0644 3.84983-11.0644 4.41844-10.8192 4.86706-10.334 5.31047-9.84889 5.53478-9.12901 5.53478-8.1848 5.53478-7.26669 5.31047-6.55723 4.85663-6.06166 4.40279-5.56087 3.84461-5.31569 3.18211-5.31569 2.52482-5.31569 1.97708-5.56087 1.53889-6.04601 1.1007-6.53637 0.881601-7.27712 0.881601-8.26827M3.20819-10.1462C2.87433-10.1462 2.59785-10.0002 2.37876-9.71326 2.15966-9.42635 2.05011-8.89948 2.05011-8.13264 2.05011-7.43362 2.15966-6.94326 2.38397-6.66156 2.60307-6.37465 2.87955-6.23381 3.20819-6.23381 3.54205-6.23381 3.81853-6.37987 4.04285-6.66678 4.26194-6.95369 4.37149-7.47535 4.37149-8.23697 4.37149-8.94121 4.26194-9.43157 4.03763-9.71848 3.81332-10.0002 3.53684-10.1462 3.20819-10.1462M3.21341 0.401676 9.16552-11.0644 10.2506-11.0644 4.31932 0.401676 3.21341 0.401676M7.91876-2.5509C7.91876-3.33339 8.11177-3.9959 8.50302-4.53842 8.89426-5.08094 9.46287-5.3522 10.2141-5.3522 10.8922-5.3522 11.4608-5.10703 11.9094-4.62189 12.3528-4.13153 12.5772-3.41686 12.5772-2.47266 12.5772-1.54932 12.3528-0.839868 11.899-0.344293 11.4452 0.15128 10.887 0.401676 10.2193 0.401676 9.56198 0.401676 9.01424 0.156498 8.57605-0.339077 8.13786-0.829436 7.91876-1.57019 7.91876-2.5509M10.2506-4.42887C9.91149-4.42887 9.63501-4.28802 9.41592-4.00111 9.1916-3.7142 9.08206-3.18733 9.08206-2.42049 9.08206-1.72669 9.19682-1.23633 9.41592-0.949417 9.64023-0.662505 9.91671-0.521657 10.2401-0.521657 10.5844-0.521657 10.8661-0.662505 11.0852-0.949417 11.3043-1.23633 11.4139-1.7632 11.4139-2.52482 11.4139-3.22384 11.3043-3.71942 11.08-4.00633 10.8557-4.28802 10.5792-4.42887 10.2506-4.42887Z" transform="matrix(1.00007 0 0 1 288.601 172.298)"/><path d="M0.490359-4.14718C0.490359-5.14354 0.589473-5.94168 0.792919-6.55202 1.00158-7.15714 1.30414-7.62663 1.70582-7.95528 2.11271-8.28392 2.61872-8.44563 3.22906-8.44563 3.6829-8.44563 4.07936-8.35695 4.41844-8.17437 4.75752-7.99179 5.03921-7.73096 5.26352-7.38667 5.48262-7.04759 5.65998-6.63027 5.78518-6.13469 5.91038-5.64433 5.97298-4.98183 5.97298-4.14718 5.97298-3.16124 5.87386-2.36311 5.67042-1.75799 5.46697-1.15286 5.16441-0.683372 4.75752-0.354727 4.35584-0.0208663 3.84461 0.146064 3.22906 0.146064 2.42049 0.146064 1.78407-0.146064 1.31979-0.73032 0.766837-1.42934 0.490359-2.56655 0.490359-4.14718M1.54932-4.14718C1.54932-2.77 1.71104-1.84667 2.03446-1.39283 2.35789-0.933767 2.75435-0.704238 3.22906-0.704238 3.70377-0.704238 4.10544-0.933767 4.42887-1.39283 4.7523-1.85188 4.91401-2.77 4.91401-4.14718 4.91401-5.53478 4.7523-6.4529 4.42887-6.90674 4.10544-7.3658 3.70377-7.59012 3.21863-7.59012 2.74392-7.59012 2.36833-7.39189 2.08141-6.99021 1.72669-6.47898 1.54932-5.52957 1.54932-4.14718Z" fill="#4D4D4D" transform="matrix(1.00007 0 0 1 70.8671 346.996)"/><path d="M0.683372-6.3903C0.683372-6.99543 0.834652-7.50143 1.13721-7.92398 1.43977-8.34652 1.87797-8.55518 2.45179-8.55518 2.97866-8.55518 3.41686-8.36738 3.76115-7.99179 4.10544-7.6162 4.28281-7.05802 4.28281-6.3277 4.28281-5.61825 4.10544-5.07051 3.75593-4.68448 3.40642-4.29846 2.97345-4.11066 2.46222-4.11066 1.951-4.11066 1.52846-4.29846 1.18938-4.67927 0.850302-5.05486 0.683372-5.62868 0.683372-6.3903M2.47787-7.84573C2.22226-7.84573 2.00838-7.73096 1.84145-7.51187 1.6693-7.28755 1.58584-6.88066 1.58584-6.29119 1.58584-5.74867 1.6693-5.36785 1.84145-5.14876 2.0136-4.92966 2.22748-4.82011 2.47787-4.82011 2.7387-4.82011 2.95258-4.92966 3.12473-5.15398 3.29688-5.37307 3.38034-5.77996 3.38034-6.36944 3.38034-6.91196 3.29166-7.29277 3.11951-7.51187 2.94736-7.73618 2.73348-7.84573 2.47787-7.84573M2.48309 0.307778 7.08411-8.55518 7.92398-8.55518 3.33861 0.307778 2.48309 0.307778M6.12426-1.97186C6.12426-2.57699 6.27554-3.08821 6.5781-3.51075 6.88066-3.92808 7.31885-4.13674 7.89789-4.13674 8.42477-4.13674 8.86296-3.94895 9.20725-3.57335 9.55155-3.19776 9.72369-2.63959 9.72891-1.90927 9.72369-1.19981 9.55155-0.652071 9.20204-0.266046 8.85253 0.119981 8.41955 0.307778 7.90311 0.307778 7.39189 0.307778 6.96934 0.119981 6.63027-0.260828 6.29119-0.641639 6.12426-1.21025 6.12426-1.97186M7.92398-3.42729C7.66315-3.42729 7.44927-3.31253 7.27712-3.09343 7.11019-2.86912 7.02151-2.46222 7.02151-1.87275 7.02151-1.33544 7.11019-0.954633 7.28234-0.735537 7.45448-0.511224 7.66837-0.401676 7.91876-0.401676 8.1848-0.401676 8.39868-0.511224 8.57083-0.735537 8.73776-0.954633 8.82644-1.36153 8.82644-1.951 8.82644-2.49352 8.73776-2.87433 8.56561-3.09343 8.39347-3.31774 8.17959-3.42729 7.92398-3.42729Z" fill="#4D4D4D" transform="matrix(1.00007 0 0 1 77.4035 346.996)"/><path d="M5.9156-0.99115 5.9156 0 0.354727 0C0.349511-0.250396 0.386026-0.490359 0.474709-0.719887 0.615556-1.09548 0.845084-1.47107 1.15808-1.83623 1.46586-2.2014 1.9197-2.62915 2.50917-3.10908 3.42207-3.86027 4.03763-4.45496 4.36106-4.89315 4.68448-5.33134 4.84098-5.74345 4.84098-6.13469 4.84098-6.54158 4.69492-6.89109 4.40279-7.16757 4.11066-7.44927 3.72985-7.59012 3.26036-7.59012 2.75957-7.59012 2.36311-7.44405 2.06576-7.14671 1.76842-6.84415 1.61714-6.43204 1.61192-5.90516L0.552956-6.01471C0.625989-6.80763 0.897251-7.40754 1.37196-7.82486 1.84667-8.23697 2.48309-8.44563 3.28122-8.44563 4.08979-8.44563 4.72622-8.22132 5.20092-7.77791 5.67042-7.32929 5.90516-6.77111 5.90516-6.11382 5.90516-5.77475 5.83735-5.4461 5.6965-5.11746 5.56087-4.79403 5.33134-4.44974 5.01313-4.08979 4.69492-3.72985 4.16283-3.23949 3.42207-2.6135 2.8013-2.09185 2.40484-1.73712 2.22748-1.55454 2.05011-1.36674 1.90405-1.17895 1.78929-0.99115Z" fill="#4D4D4D" transform="matrix(1.00007 0 0 1 64.3303 269.034)"/><path d="M0.490359-2.2014 1.57019-2.29529C1.65365-1.76842 1.84145-1.37196 2.13358-1.10591 2.42571-0.839868 2.77522-0.704238 3.19254-0.704238 3.68812-0.704238 4.11066-0.892035 4.45496-1.26763 4.79925-1.64322 4.9714-2.13879 4.9714-2.75957 4.9714-3.34904 4.80446-3.81332 4.4706-4.15239 4.14196-4.49669 3.70898-4.66362 3.17168-4.66362 2.83782-4.66362 2.54047-4.59059 2.27443-4.4393 2.00316-4.28802 1.7945-4.08979 1.64322-3.84983L0.672938-3.97503 1.48672-8.29957 5.67042-8.29957 5.67042-7.30842 2.31094-7.30842 1.8571-5.04964C2.36311-5.39916 2.8952-5.57652 3.44816-5.57652 4.18369-5.57652 4.80446-5.32091 5.31047-4.8149 5.81126-4.30367 6.06688-3.6516 6.06688-2.85347 6.06688-2.09185 5.84256-1.43456 5.39916-0.876384 4.86185-0.198231 4.12631 0.146064 3.19254 0.146064 2.42571 0.146064 1.79972-0.073032 1.31458-0.500791 0.834652-0.92855 0.558174-1.49716 0.490359-2.2014Z" fill="#4D4D4D" transform="matrix(1.00007 0 0 1 70.8666 269.034)"/><path d="M0.683372-6.3903C0.683372-6.99543 0.834652-7.50143 1.13721-7.92398 1.43977-8.34652 1.87797-8.55518 2.45179-8.55518 2.97866-8.55518 3.41686-8.36738 3.76115-7.99179 4.10544-7.6162 4.28281-7.05802 4.28281-6.3277 4.28281-5.61825 4.10544-5.07051 3.75593-4.68448 3.40642-4.29846 2.97345-4.11066 2.46222-4.11066 1.951-4.11066 1.52846-4.29846 1.18938-4.67927 0.850302-5.05486 0.683372-5.62868 0.683372-6.3903M2.47787-7.84573C2.22226-7.84573 2.00838-7.73096 1.84145-7.51187 1.6693-7.28755 1.58584-6.88066 1.58584-6.29119 1.58584-5.74867 1.6693-5.36785 1.84145-5.14876 2.0136-4.92966 2.22748-4.82011 2.47787-4.82011 2.7387-4.82011 2.95258-4.92966 3.12473-5.15398 3.29688-5.37307 3.38034-5.77996 3.38034-6.36944 3.38034-6.91196 3.29166-7.29277 3.11951-7.51187 2.94736-7.73618 2.73348-7.84573 2.47787-7.84573M2.48309 0.307778 7.08411-8.55518 7.92398-8.55518 3.33861 0.307778 2.48309 0.307778M6.12426-1.97186C6.12426-2.57699 6.27554-3.08821 6.5781-3.51075 6.88066-3.92808 7.31885-4.13674 7.89789-4.13674 8.42477-4.13674 8.86296-3.94895 9.20725-3.57335 9.55155-3.19776 9.72369-2.63959 9.72891-1.90927 9.72369-1.19981 9.55155-0.652071 9.20204-0.266046 8.85253 0.119981 8.41955 0.307778 7.90311 0.307778 7.39189 0.307778 6.96934 0.119981 6.63027-0.260828 6.29119-0.641639 6.12426-1.21025 6.12426-1.97186M7.92398-3.42729C7.66315-3.42729 7.44927-3.31253 7.27712-3.09343 7.11019-2.86912 7.02151-2.46222 7.02151-1.87275 7.02151-1.33544 7.11019-0.954633 7.28234-0.735537 7.45448-0.511224 7.66837-0.401676 7.91876-0.401676 8.1848-0.401676 8.39868-0.511224 8.57083-0.735537 8.73776-0.954633 8.82644-1.36153 8.82644-1.951 8.82644-2.49352 8.73776-2.87433 8.56561-3.09343 8.39347-3.31774 8.17959-3.42729 7.92398-3.42729Z" fill="#4D4D4D" transform="matrix(1.00007 0 0 1 77.4029 269.034)"/><path d="M0.490359-2.2014 1.57019-2.29529C1.65365-1.76842 1.84145-1.37196 2.13358-1.10591 2.42571-0.839868 2.77522-0.704238 3.19254-0.704238 3.68812-0.704238 4.11066-0.892035 4.45496-1.26763 4.79925-1.64322 4.9714-2.13879 4.9714-2.75957 4.9714-3.34904 4.80446-3.81332 4.4706-4.15239 4.14196-4.49669 3.70898-4.66362 3.17168-4.66362 2.83782-4.66362 2.54047-4.59059 2.27443-4.4393 2.00316-4.28802 1.7945-4.08979 1.64322-3.84983L0.672938-3.97503 1.48672-8.29957 5.67042-8.29957 5.67042-7.30842 2.31094-7.30842 1.8571-5.04964C2.36311-5.39916 2.8952-5.57652 3.44816-5.57652 4.18369-5.57652 4.80446-5.32091 5.31047-4.8149 5.81126-4.30367 6.06688-3.6516 6.06688-2.85347 6.06688-2.09185 5.84256-1.43456 5.39916-0.876384 4.86185-0.198231 4.12631 0.146064 3.19254 0.146064 2.42571 0.146064 1.79972-0.073032 1.31458-0.500791 0.834652-0.92855 0.558174-1.49716 0.490359-2.2014Z" fill="#4D4D4D" transform="matrix(1.00007 0 0 1 64.3303 191.078)"/><path d="M0.490359-4.14718C0.490359-5.14354 0.589473-5.94168 0.792919-6.55202 1.00158-7.15714 1.30414-7.62663 1.70582-7.95528 2.11271-8.28392 2.61872-8.44563 3.22906-8.44563 3.6829-8.44563 4.07936-8.35695 4.41844-8.17437 4.75752-7.99179 5.03921-7.73096 5.26352-7.38667 5.48262-7.04759 5.65998-6.63027 5.78518-6.13469 5.91038-5.64433 5.97298-4.98183 5.97298-4.14718 5.97298-3.16124 5.87386-2.36311 5.67042-1.75799 5.46697-1.15286 5.16441-0.683372 4.75752-0.354727 4.35584-0.0208663 3.84461 0.146064 3.22906 0.146064 2.42049 0.146064 1.78407-0.146064 1.31979-0.73032 0.766837-1.42934 0.490359-2.56655 0.490359-4.14718M1.54932-4.14718C1.54932-2.77 1.71104-1.84667 2.03446-1.39283 2.35789-0.933767 2.75435-0.704238 3.22906-0.704238 3.70377-0.704238 4.10544-0.933767 4.42887-1.39283 4.7523-1.85188 4.91401-2.77 4.91401-4.14718 4.91401-5.53478 4.7523-6.4529 4.42887-6.90674 4.10544-7.3658 3.70377-7.59012 3.21863-7.59012 2.74392-7.59012 2.36833-7.39189 2.08141-6.99021 1.72669-6.47898 1.54932-5.52957 1.54932-4.14718Z" fill="#4D4D4D" transform="matrix(1.00007 0 0 1 70.8666 191.078)"/><path d="M0.683372-6.3903C0.683372-6.99543 0.834652-7.50143 1.13721-7.92398 1.43977-8.34652 1.87797-8.55518 2.45179-8.55518 2.97866-8.55518 3.41686-8.36738 3.76115-7.99179 4.10544-7.6162 4.28281-7.05802 4.28281-6.3277 4.28281-5.61825 4.10544-5.07051 3.75593-4.68448 3.40642-4.29846 2.97345-4.11066 2.46222-4.11066 1.951-4.11066 1.52846-4.29846 1.18938-4.67927 0.850302-5.05486 0.683372-5.62868 0.683372-6.3903M2.47787-7.84573C2.22226-7.84573 2.00838-7.73096 1.84145-7.51187 1.6693-7.28755 1.58584-6.88066 1.58584-6.29119 1.58584-5.74867 1.6693-5.36785 1.84145-5.14876 2.0136-4.92966 2.22748-4.82011 2.47787-4.82011 2.7387-4.82011 2.95258-4.92966 3.12473-5.15398 3.29688-5.37307 3.38034-5.77996 3.38034-6.36944 3.38034-6.91196 3.29166-7.29277 3.11951-7.51187 2.94736-7.73618 2.73348-7.84573 2.47787-7.84573M2.48309 0.307778 7.08411-8.55518 7.92398-8.55518 3.33861 0.307778 2.48309 0.307778M6.12426-1.97186C6.12426-2.57699 6.27554-3.08821 6.5781-3.51075 6.88066-3.92808 7.31885-4.13674 7.89789-4.13674 8.42477-4.13674 8.86296-3.94895 9.20725-3.57335 9.55155-3.19776 9.72369-2.63959 9.72891-1.90927 9.72369-1.19981 9.55155-0.652071 9.20204-0.266046 8.85253 0.119981 8.41955 0.307778 7.90311 0.307778 7.39189 0.307778 6.96934 0.119981 6.63027-0.260828 6.29119-0.641639 6.12426-1.21025 6.12426-1.97186M7.92398-3.42729C7.66315-3.42729 7.44927-3.31253 7.27712-3.09343 7.11019-2.86912 7.02151-2.46222 7.02151-1.87275 7.02151-1.33544 7.11019-0.954633 7.28234-0.735537 7.45448-0.511224 7.66837-0.401676 7.91876-0.401676 8.1848-0.401676 8.39868-0.511224 8.57083-0.735537 8.73776-0.954633 8.82644-1.36153 8.82644-1.951 8.82644-2.49352 8.73776-2.87433 8.56561-3.09343 8.39347-3.31774 8.17959-3.42729 7.92398-3.42729Z" fill="#4D4D4D" transform="matrix(1.00007 0 0 1 77.4029 191.078)"/><path d="M0.558174-7.30842 0.558174-8.30479 6.00428-8.30479 6.00428-7.50143C5.46697-6.92761 4.93488-6.17121 4.408-5.22701 3.88635-4.28281 3.47946-3.31253 3.19254-2.31094 2.98388-1.6067 2.85347-0.839868 2.79608 0L1.7319 0C1.74234-0.662505 1.87275-1.46064 2.12315-2.39962 2.37354-3.33339 2.72827-4.24107 3.19254-5.11224 3.65682-5.97819 4.15239-6.71373 4.67927-7.30842Z" fill="#4D4D4D" transform="matrix(1.00007 0 0 1 64.3303 113.116)"/><path d="M0.490359-2.2014 1.57019-2.29529C1.65365-1.76842 1.84145-1.37196 2.13358-1.10591 2.42571-0.839868 2.77522-0.704238 3.19254-0.704238 3.68812-0.704238 4.11066-0.892035 4.45496-1.26763 4.79925-1.64322 4.9714-2.13879 4.9714-2.75957 4.9714-3.34904 4.80446-3.81332 4.4706-4.15239 4.14196-4.49669 3.70898-4.66362 3.17168-4.66362 2.83782-4.66362 2.54047-4.59059 2.27443-4.4393 2.00316-4.28802 1.7945-4.08979 1.64322-3.84983L0.672938-3.97503 1.48672-8.29957 5.67042-8.29957 5.67042-7.30842 2.31094-7.30842 1.8571-5.04964C2.36311-5.39916 2.8952-5.57652 3.44816-5.57652 4.18369-5.57652 4.80446-5.32091 5.31047-4.8149 5.81126-4.30367 6.06688-3.6516 6.06688-2.85347 6.06688-2.09185 5.84256-1.43456 5.39916-0.876384 4.86185-0.198231 4.12631 0.146064 3.19254 0.146064 2.42571 0.146064 1.79972-0.073032 1.31458-0.500791 0.834652-0.92855 0.558174-1.49716 0.490359-2.2014Z" fill="#4D4D4D" transform="matrix(1.00007 0 0 1 70.8666 113.116)"/><path d="M0.683372-6.3903C0.683372-6.99543 0.834652-7.50143 1.13721-7.92398 1.43977-8.34652 1.87797-8.55518 2.45179-8.55518 2.97866-8.55518 3.41686-8.36738 3.76115-7.99179 4.10544-7.6162 4.28281-7.05802 4.28281-6.3277 4.28281-5.61825 4.10544-5.07051 3.75593-4.68448 3.40642-4.29846 2.97345-4.11066 2.46222-4.11066 1.951-4.11066 1.52846-4.29846 1.18938-4.67927 0.850302-5.05486 0.683372-5.62868 0.683372-6.3903M2.47787-7.84573C2.22226-7.84573 2.00838-7.73096 1.84145-7.51187 1.6693-7.28755 1.58584-6.88066 1.58584-6.29119 1.58584-5.74867 1.6693-5.36785 1.84145-5.14876 2.0136-4.92966 2.22748-4.82011 2.47787-4.82011 2.7387-4.82011 2.95258-4.92966 3.12473-5.15398 3.29688-5.37307 3.38034-5.77996 3.38034-6.36944 3.38034-6.91196 3.29166-7.29277 3.11951-7.51187 2.94736-7.73618 2.73348-7.84573 2.47787-7.84573M2.48309 0.307778 7.08411-8.55518 7.92398-8.55518 3.33861 0.307778 2.48309 0.307778M6.12426-1.97186C6.12426-2.57699 6.27554-3.08821 6.5781-3.51075 6.88066-3.92808 7.31885-4.13674 7.89789-4.13674 8.42477-4.13674 8.86296-3.94895 9.20725-3.57335 9.55155-3.19776 9.72369-2.63959 9.72891-1.90927 9.72369-1.19981 9.55155-0.652071 9.20204-0.266046 8.85253 0.119981 8.41955 0.307778 7.90311 0.307778 7.39189 0.307778 6.96934 0.119981 6.63027-0.260828 6.29119-0.641639 6.12426-1.21025 6.12426-1.97186M7.92398-3.42729C7.66315-3.42729 7.44927-3.31253 7.27712-3.09343 7.11019-2.86912 7.02151-2.46222 7.02151-1.87275 7.02151-1.33544 7.11019-0.954633 7.28234-0.735537 7.45448-0.511224 7.66837-0.401676 7.91876-0.401676 8.1848-0.401676 8.39868-0.511224 8.57083-0.735537 8.73776-0.954633 8.82644-1.36153 8.82644-1.951 8.82644-2.49352 8.73776-2.87433 8.56561-3.09343 8.39347-3.31774 8.17959-3.42729 7.92398-3.42729Z" fill="#4D4D4D" transform="matrix(1.00007 0 0 1 77.4029 113.116)"/><path d="M4.37671 0 3.34382 0 3.34382-6.58332C3.09864-6.34335 2.77-6.10861 2.36833-5.86865 1.96143-5.6339 1.60149-5.45654 1.27806-5.33656L1.27806-6.33292C1.8571-6.60418 2.36311-6.93804 2.79608-7.32407 3.22906-7.7101 3.53162-8.08569 3.7142-8.44563L4.37671-8.44563Z" fill="#4D4D4D" transform="matrix(1.00007 0 0 1 57.7934 35.1597)"/><path d="M0.490359-4.14718C0.490359-5.14354 0.589473-5.94168 0.792919-6.55202 1.00158-7.15714 1.30414-7.62663 1.70582-7.95528 2.11271-8.28392 2.61872-8.44563 3.22906-8.44563 3.6829-8.44563 4.07936-8.35695 4.41844-8.17437 4.75752-7.99179 5.03921-7.73096 5.26352-7.38667 5.48262-7.04759 5.65998-6.63027 5.78518-6.13469 5.91038-5.64433 5.97298-4.98183 5.97298-4.14718 5.97298-3.16124 5.87386-2.36311 5.67042-1.75799 5.46697-1.15286 5.16441-0.683372 4.75752-0.354727 4.35584-0.0208663 3.84461 0.146064 3.22906 0.146064 2.42049 0.146064 1.78407-0.146064 1.31979-0.73032 0.766837-1.42934 0.490359-2.56655 0.490359-4.14718M1.54932-4.14718C1.54932-2.77 1.71104-1.84667 2.03446-1.39283 2.35789-0.933767 2.75435-0.704238 3.22906-0.704238 3.70377-0.704238 4.10544-0.933767 4.42887-1.39283 4.7523-1.85188 4.91401-2.77 4.91401-4.14718 4.91401-5.53478 4.7523-6.4529 4.42887-6.90674 4.10544-7.3658 3.70377-7.59012 3.21863-7.59012 2.74392-7.59012 2.36833-7.39189 2.08141-6.99021 1.72669-6.47898 1.54932-5.52957 1.54932-4.14718Z" fill="#4D4D4D" transform="matrix(1.00007 0 0 1 64.3298 35.1597)"/><path d="M0.490359-4.14718C0.490359-5.14354 0.589473-5.94168 0.792919-6.55202 1.00158-7.15714 1.30414-7.62663 1.70582-7.95528 2.11271-8.28392 2.61872-8.44563 3.22906-8.44563 3.6829-8.44563 4.07936-8.35695 4.41844-8.17437 4.75752-7.99179 5.03921-7.73096 5.26352-7.38667 5.48262-7.04759 5.65998-6.63027 5.78518-6.13469 5.91038-5.64433 5.97298-4.98183 5.97298-4.14718 5.97298-3.16124 5.87386-2.36311 5.67042-1.75799 5.46697-1.15286 5.16441-0.683372 4.75752-0.354727 4.35584-0.0208663 3.84461 0.146064 3.22906 0.146064 2.42049 0.146064 1.78407-0.146064 1.31979-0.73032 0.766837-1.42934 0.490359-2.56655 0.490359-4.14718M1.54932-4.14718C1.54932-2.77 1.71104-1.84667 2.03446-1.39283 2.35789-0.933767 2.75435-0.704238 3.22906-0.704238 3.70377-0.704238 4.10544-0.933767 4.42887-1.39283 4.7523-1.85188 4.91401-2.77 4.91401-4.14718 4.91401-5.53478 4.7523-6.4529 4.42887-6.90674 4.10544-7.3658 3.70377-7.59012 3.21863-7.59012 2.74392-7.59012 2.36833-7.39189 2.08141-6.99021 1.72669-6.47898 1.54932-5.52957 1.54932-4.14718Z" fill="#4D4D4D" transform="matrix(1.00007 0 0 1 70.8661 35.1597)"/><path d="M0.683372-6.3903C0.683372-6.99543 0.834652-7.50143 1.13721-7.92398 1.43977-8.34652 1.87797-8.55518 2.45179-8.55518 2.97866-8.55518 3.41686-8.36738 3.76115-7.99179 4.10544-7.6162 4.28281-7.05802 4.28281-6.3277 4.28281-5.61825 4.10544-5.07051 3.75593-4.68448 3.40642-4.29846 2.97345-4.11066 2.46222-4.11066 1.951-4.11066 1.52846-4.29846 1.18938-4.67927 0.850302-5.05486 0.683372-5.62868 0.683372-6.3903M2.47787-7.84573C2.22226-7.84573 2.00838-7.73096 1.84145-7.51187 1.6693-7.28755 1.58584-6.88066 1.58584-6.29119 1.58584-5.74867 1.6693-5.36785 1.84145-5.14876 2.0136-4.92966 2.22748-4.82011 2.47787-4.82011 2.7387-4.82011 2.95258-4.92966 3.12473-5.15398 3.29688-5.37307 3.38034-5.77996 3.38034-6.36944 3.38034-6.91196 3.29166-7.29277 3.11951-7.51187 2.94736-7.73618 2.73348-7.84573 2.47787-7.84573M2.48309 0.307778 7.08411-8.55518 7.92398-8.55518 3.33861 0.307778 2.48309 0.307778M6.12426-1.97186C6.12426-2.57699 6.27554-3.08821 6.5781-3.51075 6.88066-3.92808 7.31885-4.13674 7.89789-4.13674 8.42477-4.13674 8.86296-3.94895 9.20725-3.57335 9.55155-3.19776 9.72369-2.63959 9.72891-1.90927 9.72369-1.19981 9.55155-0.652071 9.20204-0.266046 8.85253 0.119981 8.41955 0.307778 7.90311 0.307778 7.39189 0.307778 6.96934 0.119981 6.63027-0.260828 6.29119-0.641639 6.12426-1.21025 6.12426-1.97186M7.92398-3.42729C7.66315-3.42729 7.44927-3.31253 7.27712-3.09343 7.11019-2.86912 7.02151-2.46222 7.02151-1.87275 7.02151-1.33544 7.11019-0.954633 7.28234-0.735537 7.45448-0.511224 7.66837-0.401676 7.91876-0.401676 8.1848-0.401676 8.39868-0.511224 8.57083-0.735537 8.73776-0.954633 8.82644-1.36153 8.82644-1.951 8.82644-2.49352 8.73776-2.87433 8.56561-3.09343 8.39347-3.31774 8.17959-3.42729 7.92398-3.42729Z" fill="#4D4D4D" transform="matrix(1.00007 0 0 1 77.4024 35.1597)"/><path d="M90.7736 342.119 94.4356 342.119" stroke="#333333" stroke-width="1.42489" stroke-linejoin="round" stroke-miterlimit="10" fill="none" transform="scale(1.00007 1)"/><path d="M90.7736 264.162 94.4356 264.162" stroke="#333333" stroke-width="1.42489" stroke-linejoin="round" stroke-miterlimit="10" fill="none" transform="scale(1.00007 1)"/><path d="M90.7736 186.2 94.4356 186.2" stroke="#333333" stroke-width="1.42489" stroke-linejoin="round" stroke-miterlimit="10" fill="none" transform="scale(1.00007 1)"/><path d="M90.7736 108.244 94.4356 108.244" stroke="#333333" stroke-width="1.42489" stroke-linejoin="round" stroke-miterlimit="10" fill="none" transform="scale(1.00007 1)"/><path d="M90.7736 30.2822 94.4356 30.2822" stroke="#333333" stroke-width="1.42489" stroke-linejoin="round" stroke-miterlimit="10" fill="none" transform="scale(1.00007 1)"/><path d="M286.885 345.781 286.885 342.119" stroke="#333333" stroke-width="1.42489" stroke-linejoin="round" stroke-miterlimit="10" fill="none" transform="scale(1.00007 1)"/><path d="M-0.0156498 0 3.21341-8.41433 4.41322-8.41433 7.85616 0 6.58853 0 5.60782-2.54569 2.08663-2.54569 1.1633 0-0.0156498 0M2.41006-3.45337 5.26352-3.45337 4.38192-5.78518C4.11588-6.48942 3.91765-7.07367 3.78723-7.52752 3.67768-6.99021 3.5264-6.4529 3.33339-5.92081Z" fill="#4D4D4D" transform="matrix(1.00007 0 0 1 280.375 358.452)"/><path d="M0.751187 0 0.751187-8.41433 1.78407-8.41433 1.78407 0Z" fill="#4D4D4D" transform="matrix(1.00007 0 0 1 288.214 358.452)"/><path d="M0.751187 0 0.751187-8.41433 1.78407-8.41433 1.78407 0Z" fill="#4D4D4D" transform="matrix(1.00007 0 0 1 290.825 358.452)"/><path d="M-7.99179-0.855518C-8.74298-0.855518-9.3794-1.04331-9.90627-1.41891-10.4331-1.79972-10.694-2.34746-10.694-3.06213-10.694-3.72463-10.4592-4.26716-9.98974-4.70013-9.51503-5.13311-8.82644-5.3522-7.91354-5.3522-7.02151-5.3522-6.33814-5.13311-5.85821-4.69492-5.37829-4.25672-5.13311-3.71942-5.13311-3.07778-5.13311-2.44136-5.37307-1.90927-5.84778-1.48672-6.31727-1.06418-7.03194-0.855518-7.99179-0.855518M-9.80716-3.09864C-9.80716-2.78043-9.66631-2.50917-9.38983-2.30051-9.11336-2.08663-8.60213-1.9823-7.86138-1.9823-7.18844-1.9823-6.71373-2.08663-6.43725-2.30051-6.16077-2.51961-6.02514-2.78565-6.02514-3.09864-6.02514-3.42207-6.16599-3.69333-6.44247-3.90721-6.71895-4.11588-7.22495-4.22542-7.96049-4.22542-8.63865-4.22542-9.11857-4.11588-9.39505-3.902-9.66631-3.68812-9.80716-3.41686-9.80716-3.09864M0.386026-3.10386-10.694-8.85774-10.694-9.90627 0.386026-4.17326 0.386026-3.10386M-2.46744-7.65272C-3.22384-7.65272-3.86027-7.84051-4.38714-8.22132-4.9088-8.59691-5.16963-9.14987-5.16963-9.86976-5.16963-10.527-4.93488-11.0748-4.46539-11.5078-3.9959-11.9407-3.30209-12.1598-2.38919-12.1598-1.49716-12.1598-0.813786-11.9407-0.333861-11.5025 0.146064-11.0644 0.386026-10.5218 0.386026-9.87497 0.386026-9.23855 0.15128-8.71168-0.328645-8.28914-0.803352-7.86659-1.51802-7.65272-2.46744-7.65272M-4.28281-9.90627C-4.28281-9.58285-4.14196-9.31158-3.86548-9.09771-3.589-8.88383-3.07778-8.7795-2.33703-8.7795-1.6693-8.7795-1.1946-8.88904-0.918117-9.10292-0.641639-9.3168-0.500791-9.58285-0.500791-9.90106-0.500791-10.2297-0.641639-10.501-0.918117-10.7148-1.1946-10.9235-1.7006-11.0331-2.43614-11.0331-3.11951-11.0331-3.59422-10.9235-3.8707-10.7096-4.14718-10.4957-4.28281-10.2245-4.28281-9.90627Z" transform="matrix(1.00007 0 0 1 49.7072 192.732)"/><path d="M493.968 67.998 586.025 67.998 586.025 30.2874 493.968 30.2874Z" fill="#FFFFFF" transform="scale(1.00007 1)"/><path d="M502.231 59.7298 523.415 59.7298 523.415 38.5453 502.231 38.5453Z" fill="#4770B7" transform="scale(1.00007 1)"/><path d="M-0.0156498 0 3.21341-8.41433 4.41322-8.41433 7.85616 0 6.58853 0 5.60782-2.54569 2.08663-2.54569 1.1633 0-0.0156498 0M2.41006-3.45337 5.26352-3.45337 4.38192-5.78518C4.11588-6.48942 3.91765-7.07367 3.78723-7.52752 3.67768-6.99021 3.5264-6.4529 3.33339-5.92081Z" transform="matrix(1.00007 0 0 1 531.717 54.0124)"/><path d="M0.751187 0 0.751187-8.41433 1.78407-8.41433 1.78407 0Z" transform="matrix(1.00007 0 0 1 539.556 54.0124)"/><path d="M0.751187 0 0.751187-8.41433 1.78407-8.41433 1.78407 0Z" transform="matrix(1.00007 0 0 1 542.167 54.0124)"/><path d="M0.772053 2.33703 0.772053-6.09296 1.71625-6.09296 1.71625-5.30004C1.93535-5.61303 2.18575-5.84256 2.46744-5.99906 2.74914-6.15556 3.083-6.23381 3.48467-6.23381 4.00111-6.23381 4.46017-6.09817 4.86185-5.83213 5.25831-5.56087 5.56087-5.18527 5.7591-4.69492 5.96254-4.20978 6.06688-3.67247 6.06688-3.09343 6.06688-2.46744 5.95211-1.90927 5.7278-1.40848 5.50349-0.907685 5.18006-0.526874 4.7523-0.260828 4.32976 0.00521657 3.88113 0.13563 3.40642 0.13563 3.06213 0.13563 2.75435 0.0625989 2.48309-0.0782487 2.20661-0.224313 1.9823-0.406893 1.80493-0.631205L1.80493 2.33703 0.772053 2.33703M1.71104-3.01518C1.71104-2.22748 1.86753-1.64844 2.18575-1.27284 2.50396-0.897251 2.88998-0.709454 3.33861-0.709454 3.79767-0.709454 4.19413-0.907685 4.51755-1.29371 4.8462-1.67974 5.00791-2.28486 5.00791-3.09864 5.00791-3.87592 4.85141-4.45496 4.52799-4.84098 4.20978-5.22701 3.82897-5.42002 3.38556-5.42524 2.94736-5.42002 2.55612-5.21657 2.21704-4.80446 1.87797-4.39235 1.71104-3.79767 1.71104-3.01518Z" transform="matrix(1.00007 0 0 1 548.044 54.0124)"/><path d="M4.76795 0 4.76795-0.897251C4.29324-0.208663 3.6516 0.13563 2.8326 0.13563 2.47266 0.13563 2.13879 0.0678154 1.8258-0.0678154 1.51802-0.208663 1.28328-0.38081 1.132-0.589473 0.980716-0.798136 0.876384-1.05375 0.813786-1.35631 0.772053-1.55454 0.751187-1.87797 0.751187-2.31616L0.751187-6.09296 1.78407-6.09296 1.78407-2.71262C1.78407-2.17531 1.80493-1.81015 1.84667-1.62235 1.91448-1.35109 2.05011-1.13721 2.25878-0.985932 2.47266-0.829436 2.73348-0.751187 3.04126-0.751187 3.34904-0.751187 3.64117-0.829436 3.91243-0.99115 4.18369-1.14765 4.37671-1.36674 4.49147-1.638 4.60102-1.90927 4.6584-2.31094 4.6584-2.82738L4.6584-6.09296 5.69128-6.09296 5.69128 0Z" transform="matrix(1.00007 0 0 1 554.58 54.0124)"/><path d="M0.772053 2.33703 0.772053-6.09296 1.71625-6.09296 1.71625-5.30004C1.93535-5.61303 2.18575-5.84256 2.46744-5.99906 2.74914-6.15556 3.083-6.23381 3.48467-6.23381 4.00111-6.23381 4.46017-6.09817 4.86185-5.83213 5.25831-5.56087 5.56087-5.18527 5.7591-4.69492 5.96254-4.20978 6.06688-3.67247 6.06688-3.09343 6.06688-2.46744 5.95211-1.90927 5.7278-1.40848 5.50349-0.907685 5.18006-0.526874 4.7523-0.260828 4.32976 0.00521657 3.88113 0.13563 3.40642 0.13563 3.06213 0.13563 2.75435 0.0625989 2.48309-0.0782487 2.20661-0.224313 1.9823-0.406893 1.80493-0.631205L1.80493 2.33703 0.772053 2.33703M1.71104-3.01518C1.71104-2.22748 1.86753-1.64844 2.18575-1.27284 2.50396-0.897251 2.88998-0.709454 3.33861-0.709454 3.79767-0.709454 4.19413-0.907685 4.51755-1.29371 4.8462-1.67974 5.00791-2.28486 5.00791-3.09864 5.00791-3.87592 4.85141-4.45496 4.52799-4.84098 4.20978-5.22701 3.82897-5.42002 3.38556-5.42524 2.94736-5.42002 2.55612-5.21657 2.21704-4.80446 1.87797-4.39235 1.71104-3.79767 1.71104-3.01518Z" transform="matrix(1.00007 0 0 1 561.117 54.0124)"/><path d="M0.782487-7.22495 0.782487-8.41433 1.81537-8.41433 1.81537-7.22495 0.782487-7.22495M0.782487 0 0.782487-6.09296 1.81537-6.09296 1.81537 0Z" transform="matrix(1.00007 0 0 1 567.653 54.0124)"/><path d="M0.751187 0 0.751187-8.41433 1.78407-8.41433 1.78407 0Z" transform="matrix(1.00007 0 0 1 570.264 54.0124)"/><path d="M0.359943-1.82058 1.38239-1.9823C1.43977-1.57019 1.60149-1.25719 1.86232-1.0381 2.12315-0.819002 2.48831-0.709454 2.96301-0.709454 3.43772-0.709454 3.78723-0.808569 4.01676-1.00158 4.24629-1.1946 4.36106-1.41891 4.36106-1.67974 4.36106-1.91448 4.26194-2.09706 4.05849-2.23269 3.91765-2.32659 3.56292-2.44136 2.99953-2.5822 2.24313-2.77522 1.71625-2.93693 1.42412-3.07778 1.132-3.21863 0.912901-3.41164 0.761619-3.65682 0.610339-3.90721 0.532091-4.17848 0.532091-4.47582 0.532091-4.74708 0.594689-4.99748 0.719887-5.23222 0.845084-5.46175 1.01201-5.65477 1.2259-5.80605 1.38761-5.92603 1.6067-6.02514 1.88318-6.10861 2.16488-6.19207 2.46222-6.23381 2.77522-6.23381 3.25514-6.23381 3.67768-6.16077 4.03763-6.02514 4.39757-5.88951 4.66362-5.70171 4.83576-5.46697 5.00791-5.23222 5.12789-4.91401 5.19571-4.52277L4.18369-4.38192C4.13674-4.70013 4.00633-4.9401 3.78202-5.11746 3.56292-5.29482 3.25514-5.3835 2.85347-5.3835 2.37876-5.3835 2.03968-5.30526 1.83623-5.14876 1.63279-4.99226 1.53367-4.80446 1.53367-4.5958 1.53367-4.46017 1.57541-4.34019 1.65887-4.23586 1.74234-4.12631 1.87275-4.03241 2.05533-3.95938 2.15966-3.92286 2.46222-3.83418 2.96823-3.69333 3.69855-3.50032 4.20456-3.33861 4.49669-3.21863 4.7836-3.09343 5.01313-2.91085 5.17484-2.6761 5.34177-2.43614 5.42002-2.14401 5.42524-1.78929 5.42002-1.44499 5.32091-1.12156 5.12268-0.819002 4.91923-0.511224 4.63232-0.276478 4.25151-0.109548 3.87592 0.0521657 3.44294 0.13563 2.96823 0.13563 2.17531 0.13563 1.57019-0.0260828 1.15808-0.354727 0.740754-0.683372 0.474709-1.17373 0.359943-1.82058Z" transform="matrix(1.00007 0 0 1 572.875 54.0124)"/></g></svg>